<?xml version="1.0" encoding="UTF-8"?>
<svg version="1.1" xmlns="http://www.w3.org/2000/svg" width="2912" height="2320">
<path d="M0 0 C0.99 0.33 1.98 0.66 3 1 C2.30696818 9.01826202 0.18725635 16.68914328 -1.8046875 24.4609375 C-2.1991294 26.01444039 -2.59316193 27.56804727 -2.98681641 29.12174988 C-4.05328235 33.32557918 -5.12587895 37.52782231 -6.19966888 41.72978592 C-7.11240161 45.30488174 -8.02144204 48.88091212 -8.93045235 52.45695591 C-15.24008093 77.27844317 -21.60422853 102.08599058 -27.98840332 126.88839722 C-33.54240433 148.46631954 -39.05672659 170.054179 -44.546875 191.6484375 C-44.71235981 192.29933027 -44.87784463 192.95022304 -45.04834414 193.62083983 C-48.55177069 207.40123322 -52.05259888 221.18228629 -55.5518055 234.96375179 C-56.49747295 238.68801006 -57.44337449 242.41220882 -58.38931274 246.13639832 C-59.59986858 250.90244638 -60.80935736 255.66876345 -62.01815796 260.43525696 C-64.61678437 270.67531224 -67.22722779 280.91165877 -69.89746094 291.13330078 C-70.33011246 292.79427492 -70.76276032 294.45525002 -71.19540405 296.1162262 C-71.96744638 299.07867281 -72.74729419 302.03889622 -73.53237915 304.99790955 C-73.86377899 306.26711746 -74.19517883 307.53632538 -74.53662109 308.84399414 C-74.96495743 310.46417198 -74.96495743 310.46417198 -75.40194702 312.11708069 C-75.97529931 314.88093012 -76.25917609 317.19151267 -76 320 C-74.1272619 322.40519932 -74.1272619 322.40519932 -71.5625 324.625 C-67.08870395 328.8788763 -63.1744908 333.29187517 -59.328125 338.11328125 C-57.32250645 340.60011365 -55.2617455 343.02353912 -53.16625977 345.43457031 C4.53662843 412.15971352 35.42806246 498.12335491 44 585 C44.1045752 586.04051514 44.20915039 587.08103027 44.31689453 588.15307617 C45.37532816 600.46517756 45.24386896 612.83958152 45.25 625.1875 C45.25101212 627.02021454 45.25101212 627.02021454 45.25204468 628.88995361 C45.23437915 649.08842359 44.51769646 668.95755021 42 689 C41.9175 689.66660645 41.835 690.33321289 41.75 691.02001953 C32.13493614 768.21788802 6.27710436 842.94111434 -29.0078125 912.03466797 C-30.10766981 914.21327313 -31.18013883 916.40416977 -32.25 918.59765625 C-36.89457432 928.08775843 -41.76324765 937.44002568 -46.875 946.6875 C-47.42244873 947.69820557 -47.96989746 948.70891113 -48.53393555 949.75024414 C-49.31764526 951.14811157 -49.31764526 951.14811157 -50.1171875 952.57421875 C-50.57722168 953.40526123 -51.03725586 954.23630371 -51.51123047 955.0925293 C-53 957 -53 957 -54.88916016 957.92675781 C-57.78261469 958.02715526 -59.18836635 957.09717668 -61.65625 955.59765625 C-62.58163574 955.04537354 -63.50702148 954.49309082 -64.46044922 953.92407227 C-65.46350098 953.30975342 -66.46655273 952.69543457 -67.5 952.0625 C-69.67881982 950.75896527 -71.85854386 949.456941 -74.0390625 948.15625 C-74.88985886 947.64566795 -74.88985886 947.64566795 -75.75784302 947.12477112 C-81.49784398 943.68339927 -87.30599878 940.36333356 -93.12466431 937.05722046 C-96.05511715 935.39183627 -98.98264631 933.72133165 -101.91015625 932.05078125 C-102.49147812 931.71915482 -103.07279999 931.38752838 -103.67173767 931.04585266 C-112.33738089 926.09911515 -120.97373498 921.10149713 -129.61328125 916.109375 C-133.73551645 913.72773418 -137.86361849 911.35697903 -142 909 C-142 908.01 -142 907.02 -142 906 C-142.66515625 905.77183594 -143.3303125 905.54367187 -144.015625 905.30859375 C-147.88009688 903.61409365 -151.23790094 901.38673054 -154.75 899.0625 C-156.27596573 898.06368607 -157.80200957 897.06499145 -159.328125 896.06640625 C-160.10478516 895.55609863 -160.88144531 895.04579102 -161.68164062 894.52001953 C-165.27672666 892.16292121 -168.88866924 889.83209905 -172.5 887.5 C-173.92066031 886.58086423 -175.34123305 885.66159309 -176.76171875 884.7421875 C-179.55562347 882.93432906 -182.34991907 881.12707712 -185.14453125 879.3203125 C-193.62125727 873.83912124 -202.0889204 868.34418153 -210.55126953 862.84082031 C-218.69238528 857.5474458 -226.84502157 852.27198322 -235 847 C-244.85884935 840.62650818 -254.70977731 834.24108645 -264.55126953 827.84082031 C-272.69238528 822.5474458 -280.84502157 817.27198322 -289 812 C-298.85884935 805.62650818 -308.70977731 799.24108645 -318.55126953 792.84082031 C-326.69238528 787.5474458 -334.84502157 782.27198322 -343 777 C-352.00691533 771.17726155 -361.00878368 765.34695888 -370 759.5 C-372.52094395 757.86141064 -375.04195401 756.22292305 -377.56298828 754.58447266 C-379.1528366 753.55080049 -380.74236979 752.51664342 -382.33154297 751.48193359 C-391.47929095 745.52650242 -400.66830834 739.66393111 -410 734 C-410.21615967 734.65282959 -410.43231934 735.30565918 -410.6550293 735.97827148 C-412.48960047 740.09997913 -414.97171578 743.63537596 -417.51953125 747.34765625 C-418.36303131 748.58992981 -418.36303131 748.58992981 -419.22357178 749.8572998 C-420.44345146 751.65349111 -421.66532119 753.44833214 -422.88894653 755.24197388 C-426.18188387 760.07044157 -429.45840821 764.91000829 -432.734375 769.75 C-433.41363541 770.75317764 -434.09289581 771.75635529 -434.79273987 772.78993225 C-443.34221806 785.4359187 -451.72202169 798.19330177 -460.1027832 810.95141602 C-461.23648768 812.6772482 -462.37019531 814.40307831 -463.50390625 816.12890625 C-464.05391296 816.96643433 -464.60391968 817.8039624 -465.17059326 818.66687012 C-469.24659625 824.86831612 -473.35781864 831.04557752 -477.48062134 837.2159729 C-481.17630613 842.7521119 -484.84232571 848.30721368 -488.49609375 853.87109375 C-500.76520682 872.55020559 -513.09830781 891.1799224 -525.625 909.6875 C-535.00392088 923.54762358 -544.30825482 937.45246502 -553.5 951.4375 C-554.32643005 952.69477402 -554.32643005 952.69477402 -555.16955566 953.97744751 C-558.54068175 959.10757454 -561.90872492 964.23972087 -565.27600098 969.37237549 C-570.63705092 977.54339302 -576.00263168 985.71141932 -581.375 993.875 C-581.97600525 994.78834106 -582.5770105 995.70168213 -583.19622803 996.6427002 C-592.24632128 1010.38769032 -601.40262485 1024.05761518 -610.625 1037.6875 C-620.00337713 1051.54799797 -629.3082491 1065.45245632 -638.5 1079.4375 C-639.32643005 1080.69477402 -639.32643005 1080.69477402 -640.16955566 1081.97744751 C-643.54068175 1087.10757454 -646.90872492 1092.23972087 -650.27600098 1097.37237549 C-655.63705092 1105.54339302 -661.00263168 1113.71141932 -666.375 1121.875 C-666.97600525 1122.78834106 -667.5770105 1123.70168213 -668.19622803 1124.6427002 C-677.24632128 1138.38769032 -686.40262485 1152.05761518 -695.625 1165.6875 C-705.00337713 1179.54799797 -714.3082491 1193.45245632 -723.5 1207.4375 C-724.32643005 1208.69477402 -724.32643005 1208.69477402 -725.16955566 1209.97744751 C-728.54068175 1215.10757454 -731.90872492 1220.23972087 -735.27600098 1225.37237549 C-740.63705092 1233.54339302 -746.00263168 1241.71141932 -751.375 1249.875 C-751.97600525 1250.78834106 -752.5770105 1251.70168213 -753.19622803 1252.6427002 C-762.24632128 1266.38769032 -771.40262485 1280.05761518 -780.625 1293.6875 C-790.00337713 1307.54799797 -799.3082491 1321.45245632 -808.5 1335.4375 C-809.32643005 1336.69477402 -809.32643005 1336.69477402 -810.16955566 1337.97744751 C-813.54068175 1343.10757454 -816.90872492 1348.23972087 -820.27600098 1353.37237549 C-825.63705092 1361.54339302 -831.00263168 1369.71141932 -836.375 1377.875 C-836.97600525 1378.78834106 -837.5770105 1379.70168213 -838.19622803 1380.6427002 C-847.24632128 1394.38769032 -856.40262485 1408.05761518 -865.625 1421.6875 C-875.00337713 1435.54799797 -884.3082491 1449.45245632 -893.5 1463.4375 C-894.32643005 1464.69477402 -894.32643005 1464.69477402 -895.16955566 1465.97744751 C-898.54068175 1471.10757454 -901.90872492 1476.23972087 -905.27600098 1481.37237549 C-910.63705092 1489.54339302 -916.00263168 1497.71141932 -921.375 1505.875 C-921.97600525 1506.78834106 -922.5770105 1507.70168213 -923.19622803 1508.6427002 C-932.24632128 1522.38769032 -941.40262485 1536.05761518 -950.625 1549.6875 C-960.00337713 1563.54799797 -969.3082491 1577.45245632 -978.5 1591.4375 C-979.32643005 1592.69477402 -979.32643005 1592.69477402 -980.16955566 1593.97744751 C-983.54068175 1599.10757454 -986.90872492 1604.23972087 -990.27600098 1609.37237549 C-995.63705092 1617.54339302 -1001.00263168 1625.71141932 -1006.375 1633.875 C-1007.27650787 1635.2450116 -1007.27650787 1635.2450116 -1008.19622803 1636.6427002 C-1017.24632128 1650.38769032 -1026.40262485 1664.05761518 -1035.625 1677.6875 C-1045.00337713 1691.54799797 -1054.3082491 1705.45245632 -1063.5 1719.4375 C-1064.05095337 1720.27568268 -1064.60190674 1721.11386536 -1065.16955566 1721.97744751 C-1068.54068175 1727.10757454 -1071.90872492 1732.23972087 -1075.27600098 1737.37237549 C-1080.63705092 1745.54339302 -1086.00263168 1753.71141932 -1091.375 1761.875 C-1092.27650787 1763.2450116 -1092.27650787 1763.2450116 -1093.19622803 1764.6427002 C-1102.24632128 1778.38769032 -1111.40262485 1792.05761518 -1120.625 1805.6875 C-1130.00337713 1819.54799797 -1139.3082491 1833.45245632 -1148.5 1847.4375 C-1149.05095337 1848.27568268 -1149.60190674 1849.11386536 -1150.16955566 1849.97744751 C-1153.54068175 1855.10757454 -1156.90872492 1860.23972087 -1160.27600098 1865.37237549 C-1165.63705092 1873.54339302 -1171.00263168 1881.71141932 -1176.375 1889.875 C-1177.27650787 1891.2450116 -1177.27650787 1891.2450116 -1178.19622803 1892.6427002 C-1187.24632128 1906.38769032 -1196.40262485 1920.05761518 -1205.625 1933.6875 C-1215.00337713 1947.54799797 -1224.3082491 1961.45245632 -1233.5 1975.4375 C-1234.05095337 1976.27568268 -1234.60190674 1977.11386536 -1235.16955566 1977.97744751 C-1238.54068175 1983.10757454 -1241.90872492 1988.23972087 -1245.27600098 1993.37237549 C-1250.63705082 2001.54339286 -1256.00252559 2009.71148929 -1261.375 2017.875 C-1261.97234955 2018.78269135 -1262.5696991 2019.69038269 -1263.18515015 2020.62557983 C-1274.2549294 2037.43586687 -1285.48392604 2054.1361234 -1296.76243591 2070.80686951 C-1297.62639732 2072.08389488 -1297.62639732 2072.08389488 -1298.5078125 2073.38671875 C-1299.07117813 2074.21933731 -1299.63454376 2075.05195587 -1300.21498108 2075.9098053 C-1303.59744464 2080.91287626 -1306.9626299 2085.92688021 -1310.3046875 2090.95703125 C-1310.69240829 2091.54050323 -1311.08012909 2092.12397522 -1311.479599 2092.72512817 C-1313.19452221 2095.30798479 -1314.905649 2097.89327862 -1316.61254883 2100.48144531 C-1317.1773999 2101.33448242 -1317.74225098 2102.18751953 -1318.32421875 2103.06640625 C-1319.0371106 2104.1483728 -1319.0371106 2104.1483728 -1319.7644043 2105.25219727 C-1321 2107 -1321 2107 -1323 2109 C-1325.63377666 2109.24888897 -1325.63377666 2109.24888897 -1329.04606628 2109.24723816 C-1330.33659912 2109.25143265 -1331.62713196 2109.25562714 -1332.95677185 2109.25994873 C-1334.39590528 2109.25446415 -1335.83503797 2109.24878114 -1337.27416992 2109.24291992 C-1338.78392621 2109.24399254 -1340.2936821 2109.24593093 -1341.80343628 2109.24867249 C-1345.9184076 2109.25353585 -1350.03327106 2109.24583978 -1354.14822936 2109.23571944 C-1358.47099543 2109.22692959 -1362.79375819 2109.2286968 -1367.11653137 2109.2290802 C-1374.3994018 2109.22814181 -1381.68223075 2109.21944656 -1388.96508789 2109.20581055 C-1397.32846294 2109.19020696 -1405.69179216 2109.18480813 -1414.05518073 2109.1855461 C-1423.00482056 2109.18622866 -1431.9544432 2109.17923438 -1440.90407777 2109.1700995 C-1443.45391232 2109.16799071 -1446.00374399 2109.16726134 -1448.55357933 2109.16686058 C-1466.72567847 2109.16140401 -1484.85018348 2109.03088433 -1503 2108 C-1497.83050446 2098.55005966 -1497.83050446 2098.55005966 -1494.92602539 2094.25244141 C-1494.3805455 2093.44052338 -1493.83506561 2092.62860535 -1493.27305603 2091.79208374 C-1492.41279564 2090.52215073 -1492.41279564 2090.52215073 -1491.53515625 2089.2265625 C-1490.28343427 2087.36399821 -1489.03231032 2085.5010319 -1487.78173828 2083.63769531 C-1487.15019836 2082.69800903 -1486.51865845 2081.75832275 -1485.86798096 2080.79016113 C-1482.98859385 2076.48928538 -1480.14724613 2072.163765 -1477.30859375 2067.8359375 C-1476.18350945 2066.1227512 -1475.0583456 2064.40961715 -1473.93310547 2062.6965332 C-1473.36444763 2061.83065582 -1472.79578979 2060.96477844 -1472.2098999 2060.07266235 C-1461.70302888 2044.08079146 -1451.1002036 2028.15873534 -1440.375 2012.3125 C-1430.99610818 1998.45235645 -1421.69174548 1984.54753543 -1412.5 1970.5625 C-1411.67356995 1969.30522598 -1411.67356995 1969.30522598 -1410.83044434 1968.02255249 C-1407.45931825 1962.89242546 -1404.09127508 1957.76027913 -1400.72399902 1952.62762451 C-1395.36294908 1944.45660698 -1389.99736832 1936.28858068 -1384.625 1928.125 C-1384.02399475 1927.21165894 -1383.4229895 1926.29831787 -1382.80377197 1925.3572998 C-1373.75367872 1911.61230968 -1364.59737515 1897.94238482 -1355.375 1884.3125 C-1345.99662287 1870.45200203 -1336.6917509 1856.54754368 -1327.5 1842.5625 C-1326.94904663 1841.72431732 -1326.39809326 1840.88613464 -1325.83044434 1840.02255249 C-1322.45931825 1834.89242546 -1319.09127508 1829.76027913 -1315.72399902 1824.62762451 C-1310.36294908 1816.45660698 -1304.99736832 1808.28858068 -1299.625 1800.125 C-1298.72349213 1798.7549884 -1298.72349213 1798.7549884 -1297.80377197 1797.3572998 C-1288.75367872 1783.61230968 -1279.59737515 1769.94238482 -1270.375 1756.3125 C-1260.99662287 1742.45200203 -1251.6917509 1728.54754368 -1242.5 1714.5625 C-1241.94904663 1713.72431732 -1241.39809326 1712.88613464 -1240.83044434 1712.02255249 C-1237.45931825 1706.89242546 -1234.09127508 1701.76027913 -1230.72399902 1696.62762451 C-1225.36294908 1688.45660698 -1219.99736832 1680.28858068 -1214.625 1672.125 C-1213.72349213 1670.7549884 -1213.72349213 1670.7549884 -1212.80377197 1669.3572998 C-1203.75367872 1655.61230968 -1194.59737515 1641.94238482 -1185.375 1628.3125 C-1175.99662287 1614.45200203 -1166.6917509 1600.54754368 -1157.5 1586.5625 C-1156.94904663 1585.72431732 -1156.39809326 1584.88613464 -1155.83044434 1584.02255249 C-1152.45931825 1578.89242546 -1149.09127508 1573.76027913 -1145.72399902 1568.62762451 C-1140.36294908 1560.45660698 -1134.99736832 1552.28858068 -1129.625 1544.125 C-1128.72349213 1542.7549884 -1128.72349213 1542.7549884 -1127.80377197 1541.3572998 C-1118.75367872 1527.61230968 -1109.59737515 1513.94238482 -1100.375 1500.3125 C-1090.99662287 1486.45200203 -1081.6917509 1472.54754368 -1072.5 1458.5625 C-1071.94904663 1457.72431732 -1071.39809326 1456.88613464 -1070.83044434 1456.02255249 C-1067.45931825 1450.89242546 -1064.09127508 1445.76027913 -1060.72399902 1440.62762451 C-1055.36294908 1432.45660698 -1049.99736832 1424.28858068 -1044.625 1416.125 C-1043.72349213 1414.7549884 -1043.72349213 1414.7549884 -1042.80377197 1413.3572998 C-1033.75367872 1399.61230968 -1024.59737515 1385.94238482 -1015.375 1372.3125 C-1005.99662287 1358.45200203 -996.6917509 1344.54754368 -987.5 1330.5625 C-986.67356995 1329.30522598 -986.67356995 1329.30522598 -985.83044434 1328.02255249 C-982.45931825 1322.89242546 -979.09127508 1317.76027913 -975.72399902 1312.62762451 C-970.36294908 1304.45660698 -964.99736832 1296.28858068 -959.625 1288.125 C-959.02399475 1287.21165894 -958.4229895 1286.29831787 -957.80377197 1285.3572998 C-948.75367872 1271.61230968 -939.59737515 1257.94238482 -930.375 1244.3125 C-920.99662287 1230.45200203 -911.6917509 1216.54754368 -902.5 1202.5625 C-901.67356995 1201.30522598 -901.67356995 1201.30522598 -900.83044434 1200.02255249 C-897.45931825 1194.89242546 -894.09127508 1189.76027913 -890.72399902 1184.62762451 C-885.36294908 1176.45660698 -879.99736832 1168.28858068 -874.625 1160.125 C-874.02399475 1159.21165894 -873.4229895 1158.29831787 -872.80377197 1157.3572998 C-863.75367872 1143.61230968 -854.59737515 1129.94238482 -845.375 1116.3125 C-835.99662287 1102.45200203 -826.6917509 1088.54754368 -817.5 1074.5625 C-816.67356995 1073.30522598 -816.67356995 1073.30522598 -815.83044434 1072.02255249 C-812.45931825 1066.89242546 -809.09127508 1061.76027913 -805.72399902 1056.62762451 C-800.36294908 1048.45660698 -794.99736832 1040.28858068 -789.625 1032.125 C-789.02399475 1031.21165894 -788.4229895 1030.29831787 -787.80377197 1029.3572998 C-778.75367872 1015.61230968 -769.59737515 1001.94238482 -760.375 988.3125 C-750.99662287 974.45200203 -741.6917509 960.54754368 -732.5 946.5625 C-731.67356995 945.30522598 -731.67356995 945.30522598 -730.83044434 944.02255249 C-727.45931825 938.89242546 -724.09127508 933.76027913 -720.72399902 928.62762451 C-715.36294908 920.45660698 -709.99736832 912.28858068 -704.625 904.125 C-704.02399475 903.21165894 -703.4229895 902.29831787 -702.80377197 901.3572998 C-693.75367872 887.61230968 -684.59737515 873.94238482 -675.375 860.3125 C-665.99662287 846.45200203 -656.6917509 832.54754368 -647.5 818.5625 C-646.67356995 817.30522598 -646.67356995 817.30522598 -645.83044434 816.02255249 C-642.45931825 810.89242546 -639.09127508 805.76027913 -635.72399902 800.62762451 C-630.36294908 792.45660698 -624.99736832 784.28858068 -619.625 776.125 C-619.02399475 775.21165894 -618.4229895 774.29831787 -617.80377197 773.3572998 C-608.16345172 758.71589194 -598.39641946 744.16360364 -588.57040405 729.64633179 C-576.74439907 712.17014449 -565.12435175 694.56298349 -553.55224609 676.91798401 C-548.0795345 668.58221076 -542.54285667 660.28923359 -537 652 C-539.79641032 649.72619062 -542.57329016 647.53332751 -545.609375 645.58984375 C-546.27259766 645.16316406 -546.93582031 644.73648438 -547.61914062 644.296875 C-548.32232422 643.84828125 -549.02550781 643.3996875 -549.75 642.9375 C-551.27608832 641.95710387 -552.80212865 640.97663303 -554.328125 639.99609375 C-555.10478516 639.49835449 -555.88144531 639.00061523 -556.68164062 638.48779297 C-560.29465181 636.16916511 -563.89705485 633.83422577 -567.5 631.5 C-568.92051168 630.58063454 -570.34108472 629.66136389 -571.76171875 628.7421875 C-572.46345215 628.28811523 -573.16518555 627.83404297 -573.88818359 627.36621094 C-575.9733958 626.01721123 -578.05892032 624.66869567 -580.14453125 623.3203125 C-588.62125727 617.83912124 -597.0889204 612.34418153 -605.55126953 606.84082031 C-613.69238528 601.5474458 -621.84502157 596.27198322 -630 591 C-639.85884935 584.62650818 -649.70977731 578.24108645 -659.55126953 571.84082031 C-667.0013019 566.99679001 -674.46076702 562.16745452 -681.92333984 557.34277344 C-686.16042762 554.60306232 -690.39624846 551.86139268 -694.63232422 549.12011719 C-698.13599282 546.85289573 -701.63993233 544.5860957 -705.14453125 542.3203125 C-713.62125727 536.83912124 -722.0889204 531.34418153 -730.55126953 525.84082031 C-738.69238528 520.5474458 -746.84502157 515.27198322 -755 510 C-764.00691469 504.17726197 -773.00892155 498.34717019 -782 492.5 C-789.66656278 487.51449079 -797.33624255 482.53392291 -805.01953125 477.57421875 C-807.64777109 475.87728025 -810.26957328 474.17102578 -812.88671875 472.45703125 C-814.11197592 471.65884918 -815.33723618 470.86067186 -816.5625 470.0625 C-817.61566406 469.37285156 -818.66882812 468.68320312 -819.75390625 467.97265625 C-822.07029257 466.56498466 -824.23230375 465.38786465 -826.6628418 464.24121094 C-831.28338288 461.94758716 -835.42424474 459.1258837 -839.640625 456.16796875 C-841.3230895 455.00240186 -843.00605177 453.83755324 -844.68945312 452.67333984 C-845.55997314 452.06971619 -846.43049316 451.46609253 -847.32739258 450.84417725 C-851.77407511 447.77583632 -856.2540463 444.75718859 -860.734375 441.73828125 C-861.63748413 441.12918915 -862.54059326 440.52009705 -863.47106934 439.89254761 C-865.30749418 438.65421752 -867.14412392 437.41619122 -868.98095703 436.1784668 C-871.76258315 434.30402063 -874.5434483 432.42844965 -877.32421875 430.55273438 C-887.52938133 423.67146739 -897.74920781 416.81312286 -908 410 C-906.3943102 405.76685841 -904.29257013 402.32235652 -901.625 398.6875 C-901.18873291 398.08574951 -900.75246582 397.48399902 -900.30297852 396.86401367 C-898.87626654 394.90363647 -897.4396355 392.95090348 -896 391 C-895.50580566 390.3287207 -895.01161133 389.65744141 -894.50244141 388.96582031 C-888.22213777 380.45571522 -881.80268955 372.1023428 -875 364 C-874.12885921 362.95316415 -873.25776762 361.90628734 -872.38671875 360.859375 C-866.95102547 354.35476218 -861.35856339 348.02673186 -855.59375 341.8125 C-853.3160609 339.34271664 -851.09201482 336.8364861 -848.875 334.3125 C-844.54856572 329.4931808 -840.0076893 324.89895157 -835.4375 320.3125 C-834.72899902 319.59940674 -834.02049805 318.88631348 -833.29052734 318.15161133 C-829.25835913 314.13112379 -825.12781909 310.28785589 -820.81518555 306.57006836 C-818.39112054 304.47334178 -816.04160371 302.29970856 -813.6875 300.125 C-808.28302581 295.20781447 -802.72074725 290.54274921 -797 286 C-796.36739258 285.49484863 -795.73478516 284.98969727 -795.08300781 284.46923828 C-724.52308176 228.27033247 -641.47310488 190.93257229 -472.08203125 166.796875 C-470.15579422 166.78635353 -470.15579422 166.78635353 -468.19064331 166.77561951 C-464.06459048 166.75621345 -459.93859386 166.7511846 -455.8125 166.75 C-454.75671438 166.74933722 -454.75671438 166.74933722 -453.67959976 166.74866104 C-431.64732223 166.74141071 -409.8800019 167.19352583 -388 170 C-386.62620319 170.16849034 -385.25234096 170.33644794 -383.87841797 170.50390625 C-368.30727204 172.42836902 -352.90157741 175.04889154 -337.55505371 178.31140137 C-335.97864106 178.64505303 -334.40106967 178.9732768 -332.8223877 179.29602051 C-324.69995322 180.96113433 -317.07275766 182.7970473 -309.44921875 186.1015625 C-298.09857537 191.03174637 -298.09857537 191.03174637 -286.05499268 190.39245605 C-276.55495806 186.39241084 -268.32697054 179.6744424 -260.2166748 173.43806458 C-251.87741322 167.0407421 -243.10213535 161.37564735 -234.27844238 155.6756897 C-229.61091865 152.65069917 -224.97108816 149.58402943 -220.33203125 146.515625 C-219.40284882 145.9014119 -218.47366638 145.28719879 -217.5163269 144.65437317 C-206.09625344 137.09386899 -194.75373866 129.4184941 -183.40890503 121.74578857 C-172.11992706 114.11171824 -160.80219045 106.5407884 -149.36328125 99.1328125 C-140.29691473 93.25728256 -131.27376161 87.31567446 -122.25 81.375 C-121.3117337 80.75737793 -120.37346741 80.13975586 -119.4067688 79.50341797 C-103.1287054 68.78128824 -86.94333496 57.92562813 -70.81347656 46.98193359 C-61.74994711 40.83824421 -52.63622696 34.7877993 -43.44007874 28.84432983 C-37.67387544 25.10985918 -31.96268992 21.3016113 -26.27734375 17.4453125 C-24.71552663 16.38927583 -23.15367796 15.33328581 -21.59179688 14.27734375 C-19.22721416 12.67802961 -16.86509029 11.07549444 -14.50854492 9.46435547 C-12.16689552 7.86521478 -9.81685141 6.27916404 -7.46484375 4.6953125 C-6.40099709 3.96128708 -6.40099709 3.96128708 -5.31565857 3.21243286 C-3.59462867 2.06166231 -1.80180254 1.01966876 0 0 Z M-514 271 C-514.66660645 271.09710266 -515.33321289 271.19420532 -516.02001953 271.29425049 C-559.02588618 277.55952047 -600.36124758 289.05726993 -640 307 C-640.9163623 307.41072754 -641.83272461 307.82145508 -642.77685547 308.24462891 C-663.12510497 317.42259503 -682.54717706 328.44584784 -701 341 C-701.68723145 341.46728516 -702.37446289 341.93457031 -703.08251953 342.41601562 C-718.09416016 352.69024802 -732.67269588 363.60134043 -746 376 C-747.2664899 377.10914594 -748.53725927 378.21342654 -749.8125 379.3125 C-760.42855898 388.57194293 -770.89920648 398.10780892 -780.0859375 408.8046875 C-782.3434241 411.39388642 -784.67149878 413.91202586 -787 416.4375 C-791.26492418 421.10674421 -795.22070474 425.9317398 -799 431 C-796.23416822 433.93475278 -793.46531064 436.14912113 -790.0546875 438.29296875 C-789.07306641 438.91469971 -788.09144531 439.53643066 -787.08007812 440.17700195 C-786.02240234 440.84046631 -784.96472656 441.50393066 -783.875 442.1875 C-781.61122936 443.62123244 -779.3481457 445.05599628 -777.0859375 446.4921875 C-776.50378479 446.86114639 -775.92163208 447.23010529 -775.32183838 447.61024475 C-769.00813954 451.61709028 -762.75246871 455.71100217 -756.5 459.8125 C-754.32429332 461.23839503 -752.14851407 462.66417935 -749.97265625 464.08984375 C-748.95187988 464.75870605 -747.93110352 465.42756836 -746.87939453 466.11669922 C-740.92401667 470.01188193 -734.94589098 473.87183259 -728.96679688 477.73046875 C-725.53892983 479.94309395 -722.11312642 482.15890792 -718.6875 484.375 C-717.99325928 484.82407715 -717.29901855 485.2731543 -716.58374023 485.73583984 C-710.19927014 489.86752597 -703.82390962 494.01317801 -697.44873047 498.15917969 C-689.30761472 503.4525542 -681.15497843 508.72801678 -673 514 C-663.14115065 520.37349182 -653.29022269 526.75891355 -643.44873047 533.15917969 C-635.30761472 538.4525542 -627.15497843 543.72801678 -619 549 C-609.14115065 555.37349182 -599.29022269 561.75891355 -589.44873047 568.15917969 C-581.30761472 573.4525542 -573.15497843 578.72801678 -565 584 C-555.92999779 589.86352249 -546.86559412 595.73539608 -537.8125 601.625 C-529.89240493 606.77729123 -521.95555506 611.90264932 -514 617 C-509.76362302 613.24860192 -506.95655597 608.63759746 -503.8984375 603.93359375 C-503.30962799 603.03645157 -502.72081848 602.13930939 -502.11416626 601.21498108 C-500.19685034 598.2919212 -498.28601678 595.36468105 -496.375 592.4375 C-494.3785409 589.39117456 -492.38036811 586.34597777 -490.38214111 583.30081177 C-489.0618857 581.28854038 -487.74218159 579.27590717 -486.42303467 577.26290894 C-481.65195937 569.98365679 -476.84370942 562.73109667 -472 555.5 C-466.79374999 547.71937343 -461.62235273 539.91706236 -456.48046875 532.09375 C-444.21239576 513.43072327 -431.89342455 494.80880378 -419.375 476.3125 C-409.99616625 462.45231654 -400.69174607 448.54753633 -391.5 434.5625 C-390.94904663 433.72431732 -390.39809326 432.88613464 -389.83044434 432.02255249 C-386.45931825 426.89242546 -383.09127508 421.76027913 -379.72399902 416.62762451 C-364.58021036 393.54629456 -349.392372 370.499607 -333.9375 347.625 C-333.33469208 346.73242493 -332.73188416 345.83984985 -332.11080933 344.92022705 C-327.00786851 337.36459161 -321.90311338 329.81018564 -316.79101562 322.26074219 C-314.35771538 318.66606851 -311.9312112 315.06690373 -309.51004028 311.46405029 C-308.63781754 310.16874809 -307.76309387 308.87512597 -306.88571167 307.58331299 C-305.70259939 305.84097894 -304.52800249 304.0932134 -303.35546875 302.34375 C-302.70215576 301.37630859 -302.04884277 300.40886719 -301.37573242 299.41210938 C-299.75228567 297.02848448 -299.75228567 297.02848448 -300 294 C-330.72137255 283.09984998 -361.75732717 275.69669826 -394 271 C-395.19625 270.82065918 -396.3925 270.64131836 -397.625 270.45654297 C-435.28997692 265.06895323 -476.38649421 265.36101402 -514 271 Z M-169 372 C-176.02138951 381.287224 -182.35919359 391.00963111 -188.73681641 400.7434082 C-191.97773372 405.68943186 -195.22755825 410.62959889 -198.4765625 415.5703125 C-199.12506165 416.55690857 -199.77356079 417.54350464 -200.44171143 418.55999756 C-205.92502268 426.8976257 -211.45217542 435.20521214 -217 443.5 C-222.96056357 452.41390315 -228.89464341 461.34429792 -234.78515625 470.3046875 C-235.37498291 471.20186996 -235.96480957 472.09905243 -236.57250977 473.02342224 C-237.78714836 474.87118322 -239.00176809 476.7189566 -240.21636963 478.56674194 C-250.58683221 494.34186572 -261.04377244 510.05292864 -271.625 525.6875 C-281.00377575 539.54772332 -290.30825334 553.45246277 -299.5 567.4375 C-300.05095337 568.27568268 -300.60190674 569.11386536 -301.16955566 569.97744751 C-304.54068175 575.10757454 -307.90872492 580.23972087 -311.27600098 585.37237549 C-316.63705101 593.54339315 -322.00271905 601.71136171 -327.375 609.875 C-328.27052582 611.23603851 -328.27052582 611.23603851 -329.18414307 612.62457275 C-338.485392 626.75238859 -347.89992651 640.80077444 -357.375 654.8125 C-368.92390213 671.88396288 -368.92390213 671.88396288 -380.3125 689.0625 C-381.21911377 690.43595581 -381.21911377 690.43595581 -382.14404297 691.8371582 C-382.6701416 692.64499756 -383.19624023 693.45283691 -383.73828125 694.28515625 C-384.18212158 694.96457275 -384.62596191 695.64398926 -385.08325195 696.34399414 C-386.16144274 697.97615814 -386.16144274 697.97615814 -386 700 C-383.61596728 701.69538078 -381.22895754 703.26587447 -378.75 704.8125 C-377.18200249 705.80813849 -375.61430636 706.80425172 -374.046875 707.80078125 C-373.21994141 708.32365723 -372.39300781 708.8465332 -371.54101562 709.38525391 C-367.3383919 712.05590661 -363.17082857 714.78007052 -359 717.5 C-350.00975291 723.34844312 -341.00691049 729.17726468 -332 735 C-322.14115065 741.37349182 -312.29022269 747.75891355 -302.44873047 754.15917969 C-294.30761472 759.4525542 -286.15497843 764.72801678 -278 770 C-268.14115065 776.37349182 -258.29022269 782.75891355 -248.44873047 789.15917969 C-240.9986981 794.00320999 -233.53923298 798.83254548 -226.07666016 803.65722656 C-221.83957238 806.39693768 -217.60375154 809.13860732 -213.36767578 811.87988281 C-209.86400718 814.14710427 -206.36006767 816.4139043 -202.85546875 818.6796875 C-194.37874273 824.16087876 -185.9110796 829.65581847 -177.44873047 835.15917969 C-172.07392527 838.65389193 -166.69549495 842.1429162 -161.3125 845.625 C-160.62647705 846.06884033 -159.9404541 846.51268066 -159.23364258 846.9699707 C-155.68582334 849.26473216 -152.1365942 851.55728759 -148.5859375 853.84765625 C-147.85608643 854.31888916 -147.12623535 854.79012207 -146.37426758 855.27563477 C-144.93446557 856.20522894 -143.49421006 857.13412117 -142.0534668 858.06225586 C-138.80112716 860.16293986 -135.56612732 862.2816997 -132.37109375 864.46875 C-131.29988281 865.2009375 -130.22867188 865.933125 -129.125 866.6875 C-128.19945313 867.33074219 -127.27390625 867.97398437 -126.3203125 868.63671875 C-124.01743037 870.25328801 -124.01743037 870.25328801 -121 870 C-87.71955614 806.12135512 -63.82119849 735.94799917 -57 664 C-56.9057373 663.0937085 -56.81147461 662.18741699 -56.71435547 661.25366211 C-54.05396393 632.43434019 -54.27816536 601.56434201 -59 573 C-59.29801514 571.16961182 -59.29801514 571.16961182 -59.60205078 569.30224609 C-69.1212448 512.5792585 -91.35249829 458.68316654 -128 414 C-128.43086914 413.47438477 -128.86173828 412.94876953 -129.30566406 412.40722656 C-138.51805032 401.22123059 -148.31148073 390.61311929 -158.5 380.3125 C-159.19504639 379.60440186 -159.89009277 378.89630371 -160.60620117 378.16674805 C-161.59003784 377.18121948 -161.59003784 377.18121948 -162.59375 376.17578125 C-163.47063477 375.29273315 -163.47063477 375.29273315 -164.36523438 374.3918457 C-166.06182555 372.77149024 -166.06182555 372.77149024 -169 372 Z " fill="#FEF9FD" transform="translate(2794,115)"/>
<path d="M0 0 C8.38966198 4.75985286 16.44463509 9.84975551 24.4375 15.25 C26.82279572 16.85238573 29.21015875 18.4516785 31.59765625 20.05078125 C32.511521 20.6634359 32.511521 20.6634359 33.44384766 21.28846741 C40.05736829 25.7176076 46.71309779 30.08160188 53.375 34.4375 C53.97512909 34.83005981 54.57525818 35.22261963 55.193573 35.6270752 C58.24288665 37.62165508 61.29267577 39.615506 64.34277344 41.60888672 C69.79733304 45.17426624 75.24723052 48.74676135 80.69747925 52.31872559 C83.67703668 54.27136605 86.65689197 56.22355185 89.63671875 58.17578125 C90.84033349 58.96435325 92.04394675 59.75292749 93.24755859 60.54150391 C93.85678162 60.94065002 94.46600464 61.33979614 95.09368896 61.7510376 C96.4023234 62.60841878 97.71095785 63.46579997 99.01959229 64.32318115 C99.70358093 64.77131165 100.38756958 65.21944214 101.09228516 65.68115234 C104.20707703 67.72187805 104.20707703 67.72187805 107.3218689 69.76260376 C107.99037872 70.20059296 108.65888855 70.63858215 109.34765625 71.08984375 C110.66927083 71.95572917 111.99088542 72.82161458 113.3125 73.6875 C113.95735352 74.10999023 114.60220703 74.53248047 115.26660156 74.96777344 C118.84440104 77.31184896 122.42220052 79.65592448 126 82 C125.36451203 85.31589552 124.14769596 87.59710117 122.2890625 90.40234375 C121.42619629 91.71452881 121.42619629 91.71452881 120.54589844 93.05322266 C119.91200195 94.00503418 119.27810547 94.9568457 118.625 95.9375 C117.24736567 98.02732387 115.86976298 100.11716859 114.4921875 102.20703125 C113.7524248 103.32512926 113.01251347 104.44312896 112.27246094 105.56103516 C109.98637783 109.01699698 107.71408972 112.48187806 105.4453125 115.94921875 C104.87135239 116.82636787 104.87135239 116.82636787 104.28579712 117.72123718 C103.50346713 118.91693042 102.7211696 120.11264489 101.93890381 121.30838013 C99.92448404 124.38637093 97.90749539 127.46267716 95.890625 130.5390625 C91.48711469 137.2564851 87.08506096 143.97486102 82.68347168 150.69354248 C80.7057128 153.71240425 78.72785112 156.73119867 76.75 159.75 C75.95833284 160.95833301 75.16666618 162.16666635 74.375 163.375 C35.1875 223.1875 -4 283 -748.56230164 1419.43717957 C-749.35465111 1420.64656687 -750.14697896 1421.85596834 -750.93928528 1423.06538391 C-752.90782868 1426.07020758 -754.8767367 1429.07479101 -756.84643555 1432.07885742 C-760.53600107 1437.70680438 -764.2218518 1443.33708561 -767.89541626 1448.97549438 C-769.61835337 1451.61949069 -771.34328246 1454.26218461 -773.06835938 1456.90478516 C-773.88494521 1458.1569048 -774.70056993 1459.40965187 -775.51513672 1460.66308594 C-776.64953545 1462.40853355 -777.7873266 1464.15172727 -778.92578125 1465.89453125 C-779.56942627 1466.88300049 -780.21307129 1467.87146973 -780.8762207 1468.88989258 C-781.92749146 1470.42939575 -781.92749146 1470.42939575 -783 1472 C-783.30303197 1472.6671915 -783.60606394 1473.33438299 -783.91827869 1474.02179241 C-785.3511501 1476.66978472 -786.57716178 1478.18207263 -789 1480 C-794.68787113 1481.21243367 -800.32111091 1481.01151706 -806.11279297 1480.90820312 C-807.8772013 1480.90594557 -809.64161715 1480.90721508 -811.40602112 1480.91174316 C-816.1892313 1480.91403719 -820.97083432 1480.86702865 -825.75367117 1480.8111515 C-830.75440906 1480.76111678 -835.75518445 1480.75643979 -840.75613403 1480.74694824 C-850.22297738 1480.72209017 -859.68908104 1480.65645062 -869.15559876 1480.57615232 C-879.93414641 1480.486711 -890.71272952 1480.44274164 -901.49155593 1480.40258884 C-923.66145003 1480.31898392 -945.83067841 1480.17828404 -968 1480 C-967.34316196 1476.38746049 -966.59651321 1473.97295165 -964.5078125 1470.9375 C-963.97776611 1470.15632813 -963.44771973 1469.37515625 -962.90161133 1468.5703125 C-962.31532959 1467.72210937 -961.72904785 1466.87390625 -961.125 1466 C-959.83850904 1464.10507213 -958.55342935 1462.20918561 -957.26953125 1460.3125 C-956.57811035 1459.29414063 -955.88668945 1458.27578125 -955.17431641 1457.2265625 C-951.33001306 1451.52183389 -947.57472628 1445.75903957 -943.8125 1440 C-943.0028777 1438.76229732 -942.19314371 1437.5246677 -941.38330078 1436.28710938 C-939.74033669 1433.77629387 -938.09778909 1431.26520674 -936.45556641 1428.75390625 C-932.86798002 1423.2684936 -929.27507417 1417.78656681 -925.6824646 1412.30444336 C-923.70474863 1409.2864448 -921.72739291 1406.26821023 -919.75 1403.25 C-918.95833505 1402.04166554 -918.16666838 1400.83333221 -917.375 1399.625 C-916.7871875 1398.7278125 -916.7871875 1398.7278125 -916.1875 1397.8125 C-877 1338 -837.8125 1278.1875 -37.43774414 56.56288147 C-36.64525288 55.35328364 -35.85277242 54.14367873 -35.06030273 52.93406677 C-33.09384058 49.93252228 -31.12719699 46.931097 -29.16015625 43.92993164 C-25.44588941 38.26255113 -21.7335762 32.59391542 -18.02722168 26.9213562 C-16.27443817 24.2389586 -14.52068034 21.55719871 -12.7668457 18.87548828 C-11.93025726 17.59569659 -11.09414748 16.31559186 -10.25854492 15.03515625 C-9.10065368 13.26092646 -7.94112429 11.48777756 -6.78125 9.71484375 C-6.12189453 8.70542725 -5.46253906 7.69601074 -4.78320312 6.65600586 C-3.25356355 4.37767222 -1.67263254 2.17448693 0 0 Z " fill="#FEFAFE" transform="translate(1857,742)"/>
<path d="M0 0 C5.14746838 1.76813446 9.62064526 4.6307224 14.25 7.4375 C15.14041992 7.97463623 16.03083984 8.51177246 16.94824219 9.06518555 C23.13756349 12.81904753 29.23919435 16.69043641 35.29760742 20.65112305 C44.39766468 26.59104528 53.64099805 32.30307513 62.86523438 38.04736328 C68.01703275 41.25640405 73.16510102 44.47140842 78.3125 47.6875 C79.31120117 48.31148682 80.30990234 48.93547363 81.33886719 49.57836914 C89.78326892 54.85785347 98.2069315 60.16963697 106.62207031 65.49560547 C110.97549302 68.24979343 115.33171185 70.9995552 119.6875 73.75 C121.295584 74.76560745 122.903658 75.78123073 124.51171875 76.796875 C125.18678467 77.22323242 125.86185059 77.64958984 126.55737305 78.08886719 C127.03343994 78.38954102 127.50950684 78.69021484 128 79 C126.60233767 82.78801669 124.8508857 86.07756733 122.7265625 89.5078125 C122.07268555 90.56734131 121.41880859 91.62687012 120.74511719 92.71850586 C120.03856827 93.85410149 119.33185892 94.98959731 118.625 96.125 C117.89722225 97.30006379 117.16968549 98.47527687 116.44238281 99.65063477 C110.82292092 108.72097583 105.14282618 117.75282918 99.42236328 126.75976562 C89.87630229 141.79489362 80.43005636 156.89193694 71 172 C63.54554664 183.94291393 56.08702029 195.88256977 48.55786133 207.77856445 C44.51521203 214.17116796 40.50506888 220.58379875 36.5 227 C32.01892879 234.1787666 27.52577191 241.34932635 23 248.5 C15.95272202 259.63709939 8.97845224 270.81969603 2 282 C-5.45671842 293.94654283 -12.91862847 305.88909636 -20.44873047 317.78955078 C-27.00934125 328.16573779 -33.49979935 338.58591151 -40 349 C-47.45445336 360.94291393 -54.91297971 372.88256977 -62.44213867 384.77856445 C-66.48478797 391.17116796 -70.49493112 397.58379875 -74.5 404 C-78.98107121 411.1787666 -83.47422809 418.34932635 -88 425.5 C-95.04727798 436.63709939 -102.02154776 447.81969603 -109 459 C-116.45671842 470.94654283 -123.91862847 482.88909636 -131.44873047 494.78955078 C-138.00934125 505.16573779 -144.49979935 515.58591151 -151 526 C-158.45445336 537.94291393 -165.91297971 549.88256977 -173.44213867 561.77856445 C-177.48478797 568.17116796 -181.49493112 574.58379875 -185.5 581 C-189.98107121 588.1787666 -194.47422809 595.34932635 -199 602.5 C-206.04727798 613.63709939 -213.02154776 624.81969603 -220 636 C-227.45671842 647.94654283 -234.91862847 659.88909636 -242.44873047 671.78955078 C-249.00934125 682.16573779 -255.49979935 692.58591151 -262 703 C-269.45445336 714.94291393 -276.91297971 726.88256977 -284.44213867 738.77856445 C-288.48478797 745.17116796 -292.49493112 751.58379875 -296.5 758 C-300.98107121 765.1787666 -305.47422809 772.34932635 -310 779.5 C-317.04727798 790.63709939 -324.02154776 801.81969603 -331 813 C-338.45671842 824.94654283 -345.91862847 836.88909636 -353.44873047 848.78955078 C-360.00934125 859.16573779 -366.49979935 869.58591151 -373 880 C-380.45445336 891.94291393 -387.91297971 903.88256977 -395.44213867 915.77856445 C-399.48478797 922.17116796 -403.49493112 928.58379875 -407.5 935 C-411.98107121 942.1787666 -416.47422809 949.34932635 -421 956.5 C-428.04727798 967.63709939 -435.02154776 978.81969603 -442 990 C-449.45671842 1001.94654283 -456.91862847 1013.88909636 -464.44873047 1025.78955078 C-471.00934125 1036.16573779 -477.49979935 1046.58591151 -484 1057 C-491.45445336 1068.94291393 -498.91297971 1080.88256977 -506.44213867 1092.77856445 C-510.48478797 1099.17116796 -514.49493112 1105.58379875 -518.5 1112 C-522.98107121 1119.1787666 -527.47422809 1126.34932635 -532 1133.5 C-539.04727798 1144.63709939 -546.02154776 1155.81969603 -553 1167 C-560.45671842 1178.94654283 -567.91862847 1190.88909636 -575.44873047 1202.78955078 C-582.00934125 1213.16573779 -588.49979935 1223.58591151 -595 1234 C-602.45445336 1245.94291393 -609.91297971 1257.88256977 -617.44213867 1269.77856445 C-621.48478797 1276.17116796 -625.49493112 1282.58379875 -629.5 1289 C-634.45143174 1296.93229368 -639.42182864 1304.85186784 -644.42602539 1312.75097656 C-647.26969513 1317.2446533 -650.09346237 1321.75010745 -652.90234375 1326.265625 C-653.57201172 1327.34134766 -654.24167969 1328.41707031 -654.93164062 1329.52539062 C-656.23571306 1331.62181087 -657.53790148 1333.71940464 -658.83789062 1335.81835938 C-659.43666016 1336.78064453 -660.03542969 1337.74292969 -660.65234375 1338.734375 C-661.17820068 1339.58225586 -661.70405762 1340.43013672 -662.24584961 1341.30371094 C-662.82471924 1342.19348633 -663.40358887 1343.08326172 -664 1344 C-664.27377661 1344.58192014 -664.54755322 1345.16384027 -664.82962608 1345.76339436 C-666.02001976 1347.95234127 -667.08535311 1349.38946506 -669 1351 C-673.11056645 1352.06755155 -677.15838065 1351.94276377 -681.38549805 1351.88647461 C-682.64524948 1351.89725037 -683.90500092 1351.90802612 -685.20292664 1351.91912842 C-688.66446806 1351.94790185 -692.12465859 1351.9335673 -695.58620048 1351.91168666 C-699.25286482 1351.89593992 -702.91927659 1351.92000665 -706.58589172 1351.93959045 C-713.57653717 1351.97090283 -720.56669349 1351.96655762 -727.55737001 1351.94951588 C-735.34359354 1351.93218673 -743.12953272 1351.95365522 -750.91571593 1351.97902179 C-767.66238923 1352.03237657 -784.40873258 1352.02511125 -801.15544891 1352.00392914 C-807.02502111 1351.99793042 -812.89458589 1351.99865018 -818.76416016 1352.00048828 C-820.29513635 1352.0009476 -820.29513635 1352.0009476 -821.85704136 1352.00141621 C-823.79080582 1352.00201529 -825.72457028 1352.00263151 -827.65833473 1352.00326729 C-834.10555663 1352.00477286 -840.55277853 1352.00233404 -847 1352 C-845.75206692 1348.12885643 -844.49264485 1344.856944 -842.26953125 1341.4453125 C-841.44751221 1340.17071167 -841.44751221 1340.17071167 -840.60888672 1338.87036133 C-840.0160791 1337.96439209 -839.42327148 1337.05842285 -838.8125 1336.125 C-837.53938233 1334.15297754 -836.26728213 1332.18029791 -834.99609375 1330.20703125 C-834.00778564 1328.6768335 -834.00778564 1328.6768335 -832.99951172 1327.11572266 C-829.74460832 1322.04379626 -826.56018668 1316.92838971 -823.375 1311.8125 C-818.9368877 1304.6953838 -814.48622086 1297.58689567 -810 1290.5 C-805.47408296 1283.34941891 -800.98107053 1276.17876551 -796.5 1269 C-792.01892879 1261.8212334 -787.52577191 1254.65067365 -783 1247.5 C-775.95272202 1236.36290061 -768.97845224 1225.18030397 -762 1214 C-754.54328158 1202.05345717 -747.08137153 1190.11090364 -739.55126953 1178.21044922 C-732.99065875 1167.83426221 -726.50020065 1157.41408849 -720 1147 C-712.54554664 1135.05708607 -705.08702029 1123.11743023 -697.55786133 1111.22143555 C-693.51521203 1104.82883204 -689.50506888 1098.41620125 -685.5 1092 C-681.01892879 1084.8212334 -676.52577191 1077.65067365 -672 1070.5 C-664.95272202 1059.36290061 -657.97845224 1048.18030397 -651 1037 C-643.54328158 1025.05345717 -636.08137153 1013.11090364 -628.55126953 1001.21044922 C-621.99065875 990.83426221 -615.50020065 980.41408849 -609 970 C-601.54554664 958.05708607 -594.08702029 946.11743023 -586.55786133 934.22143555 C-582.51521203 927.82883204 -578.50506888 921.41620125 -574.5 915 C-570.01892879 907.8212334 -565.52577191 900.65067365 -561 893.5 C-553.95272202 882.36290061 -546.97845224 871.18030397 -540 860 C-532.54328158 848.05345717 -525.08137153 836.11090364 -517.55126953 824.21044922 C-510.99065875 813.83426221 -504.50020065 803.41408849 -498 793 C-490.54554664 781.05708607 -483.08702029 769.11743023 -475.55786133 757.22143555 C-471.51521203 750.82883204 -467.50506888 744.41620125 -463.5 738 C-459.01892879 730.8212334 -454.52577191 723.65067365 -450 716.5 C-442.95272202 705.36290061 -435.97845224 694.18030397 -429 683 C-421.54328158 671.05345717 -414.08137153 659.11090364 -406.55126953 647.21044922 C-399.99065875 636.83426221 -393.50020065 626.41408849 -387 616 C-379.54554664 604.05708607 -372.08702029 592.11743023 -364.55786133 580.22143555 C-360.51521203 573.82883204 -356.50506888 567.41620125 -352.5 561 C-348.01892879 553.8212334 -343.52577191 546.65067365 -339 539.5 C-331.95272202 528.36290061 -324.97845224 517.18030397 -318 506 C-310.54328158 494.05345717 -303.08137153 482.11090364 -295.55126953 470.21044922 C-288.99065875 459.83426221 -282.50020065 449.41408849 -276 439 C-268.54554664 427.05708607 -261.08702029 415.11743023 -253.55786133 403.22143555 C-249.51521203 396.82883204 -245.50506888 390.41620125 -241.5 384 C-237.01892879 376.8212334 -232.52577191 369.65067365 -228 362.5 C-220.95272202 351.36290061 -213.97845224 340.18030397 -207 329 C-199.54328158 317.05345717 -192.08137153 305.11090364 -184.55126953 293.21044922 C-177.99065875 282.83426221 -171.50020065 272.41408849 -165 262 C-157.54554664 250.05708607 -150.08702029 238.11743023 -142.55786133 226.22143555 C-138.51521203 219.82883204 -134.50506888 213.41620125 -130.5 207 C-126.01892879 199.8212334 -121.52577191 192.65067365 -117 185.5 C-109.95272202 174.36290061 -102.97845224 163.18030397 -96 152 C-88.54328158 140.05345717 -81.08137153 128.11090364 -73.55126953 116.21044922 C-66.99065875 105.83426221 -60.50020065 95.41408849 -54 85 C-46.5464167 73.05848001 -39.09052394 61.11906249 -31.56005859 49.22583008 C-28.14502054 43.82733337 -24.75812982 38.41176234 -21.37939453 32.99047852 C-16.17929007 24.64769086 -10.96221044 16.3184556 -5.625 8.0625 C-4.93748657 6.99781494 -4.93748657 6.99781494 -4.23608398 5.91162109 C-1.13004879 1.13004879 -1.13004879 1.13004879 0 0 Z " fill="#FEFAFE" transform="translate(1304,872)"/>
<path d="M0 0 C6.47031527 3.10689147 12.60219815 6.47543018 18.625 10.375 C20.29257316 11.44072341 21.9605619 12.50579676 23.62890625 13.5703125 C24.5017627 14.12879883 25.37461914 14.68728516 26.27392578 15.26269531 C31.01907065 18.28673712 35.79039273 21.26875063 40.5625 24.25 C41.56337646 24.87551758 42.56425293 25.50103516 43.59545898 26.14550781 C53.28791573 32.19437419 63.01970468 38.17879447 72.75390625 44.16015625 C81.85048048 49.7500199 90.93071682 55.36597846 100 61 C101.04655762 61.64984863 102.09311523 62.29969727 103.17138672 62.96923828 C106.46986321 65.01885703 109.76646003 67.07146572 113.0625 69.125 C114.60768311 70.08515015 114.60768311 70.08515015 116.18408203 71.06469727 C117.14556152 71.66467529 118.10704102 72.26465332 119.09765625 72.8828125 C120.37394897 73.67776123 120.37394897 73.67776123 121.67602539 74.48876953 C123.85986596 75.90887386 125.93730389 77.41038296 128 79 C126.24280722 84.10619548 123.4129658 88.53393804 120.625 93.125 C120.0897168 94.01171387 119.55443359 94.89842773 119.00292969 95.81201172 C115.00661662 102.40581122 110.91439829 108.93518621 106.77709961 115.44116211 C102.51634822 122.15087239 98.34452575 128.91312462 94.1875 135.6875 C88.99478075 144.14820019 83.77193871 152.58842792 78.5 161 C73.2931199 169.30893872 68.13078745 177.6438626 63 186 C57.25968448 195.34883107 51.46988479 204.66489964 45.64453125 213.9609375 C41.05977338 221.28501611 36.52124944 228.63657249 32 236 C26.86921176 244.35613867 21.70675581 252.6909826 16.5 261 C9.88980917 271.54997616 3.35782832 282.14678248 -3.16015625 292.75390625 C-11.15616228 305.76607738 -19.20773558 318.74281395 -27.3125 331.6875 C-33.98303777 342.34292224 -40.57865705 353.04332656 -47.16015625 363.75390625 C-55.15616228 376.76607738 -63.20773558 389.74281395 -71.3125 402.6875 C-77.98303777 413.34292224 -84.57865705 424.04332656 -91.16015625 434.75390625 C-99.15616228 447.76607738 -107.20773558 460.74281395 -115.3125 473.6875 C-121.98303777 484.34292224 -128.57865705 495.04332656 -135.16015625 505.75390625 C-143.15616228 518.76607738 -151.20773558 531.74281395 -159.3125 544.6875 C-165.98303777 555.34292224 -172.57865705 566.04332656 -179.16015625 576.75390625 C-187.15616228 589.76607738 -195.20773558 602.74281395 -203.3125 615.6875 C-209.98303777 626.34292224 -216.57865705 637.04332656 -223.16015625 647.75390625 C-231.15616228 660.76607738 -239.20773558 673.74281395 -247.3125 686.6875 C-253.98303777 697.34292224 -260.57865705 708.04332656 -267.16015625 718.75390625 C-275.15616228 731.76607738 -283.20773558 744.74281395 -291.3125 757.6875 C-297.98303777 768.34292224 -304.57865705 779.04332656 -311.16015625 789.75390625 C-319.15616228 802.76607738 -327.20773558 815.74281395 -335.3125 828.6875 C-341.98303777 839.34292224 -348.57865705 850.04332656 -355.16015625 860.75390625 C-363.15616228 873.76607738 -371.20773558 886.74281395 -379.3125 899.6875 C-385.98303777 910.34292224 -392.57865705 921.04332656 -399.16015625 931.75390625 C-407.15616228 944.76607738 -415.20773558 957.74281395 -423.3125 970.6875 C-429.98303777 981.34292224 -436.57865705 992.04332656 -443.16015625 1002.75390625 C-451.15616228 1015.76607738 -459.20773558 1028.74281395 -467.3125 1041.6875 C-473.98303777 1052.34292224 -480.57865705 1063.04332656 -487.16015625 1073.75390625 C-495.34684991 1087.07638981 -503.59137358 1100.3625871 -511.875 1113.625 C-512.48158447 1114.59646973 -513.08816895 1115.56793945 -513.71313477 1116.56884766 C-516.75694573 1121.43677314 -519.81204377 1126.29746764 -522.8828125 1131.1484375 C-523.45660645 1132.05513184 -524.03040039 1132.96182617 -524.62158203 1133.89599609 C-526 1136 -526 1136 -527 1137 C-528.60330395 1137.12365306 -530.21199177 1137.17796467 -531.81982422 1137.20532227 C-533.39620918 1137.23523254 -533.39620918 1137.23523254 -535.00444031 1137.26574707 C-536.17602188 1137.2824646 -537.34760345 1137.29918213 -538.5546875 1137.31640625 C-539.79462967 1137.33723267 -541.03457184 1137.35805908 -542.31208801 1137.3795166 C-545.77116081 1137.43511104 -549.23022374 1137.4854274 -552.68941879 1137.53242874 C-554.8696798 1137.5624268 -557.04990568 1137.59433556 -559.23013306 1137.62667847 C-601.15020074 1138.24013529 -643.07673857 1138.09391478 -685 1138 C-685.66 1139.32 -686.32 1140.64 -687 1142 C-694.15406617 1142.74521523 -698.30223306 1141.34707015 -704 1137 C-702.24280722 1131.89380452 -699.4129658 1127.46606196 -696.625 1122.875 C-696.0897168 1121.98828613 -695.55443359 1121.10157227 -695.00292969 1120.18798828 C-691.00661662 1113.59418878 -686.91439829 1107.06481379 -682.77709961 1100.55883789 C-678.51634822 1093.84912761 -674.34452575 1087.08687538 -670.1875 1080.3125 C-664.99478075 1071.85179981 -659.77193871 1063.41157208 -654.5 1055 C-649.2931199 1046.69106128 -644.13078745 1038.3561374 -639 1030 C-633.25968448 1020.65116893 -627.46988479 1011.33510036 -621.64453125 1002.0390625 C-617.05977338 994.71498389 -612.52124944 987.36342751 -608 980 C-602.86921176 971.64386133 -597.70675581 963.3090174 -592.5 955 C-585.88980917 944.45002384 -579.35782832 933.85321752 -572.83984375 923.24609375 C-564.84383772 910.23392262 -556.79226442 897.25718605 -548.6875 884.3125 C-542.01696223 873.65707776 -535.42134295 862.95667344 -528.83984375 852.24609375 C-520.84383772 839.23392262 -512.79226442 826.25718605 -504.6875 813.3125 C-498.01696223 802.65707776 -491.42134295 791.95667344 -484.83984375 781.24609375 C-476.84383772 768.23392262 -468.79226442 755.25718605 -460.6875 742.3125 C-454.01696223 731.65707776 -447.42134295 720.95667344 -440.83984375 710.24609375 C-432.84383772 697.23392262 -424.79226442 684.25718605 -416.6875 671.3125 C-410.01696223 660.65707776 -403.42134295 649.95667344 -396.83984375 639.24609375 C-388.84383772 626.23392262 -380.79226442 613.25718605 -372.6875 600.3125 C-366.01696223 589.65707776 -359.42134295 578.95667344 -352.83984375 568.24609375 C-344.84383772 555.23392262 -336.79226442 542.25718605 -328.6875 529.3125 C-322.01696223 518.65707776 -315.42134295 507.95667344 -308.83984375 497.24609375 C-300.84383772 484.23392262 -292.79226442 471.25718605 -284.6875 458.3125 C-278.01696223 447.65707776 -271.42134295 436.95667344 -264.83984375 426.24609375 C-256.84383772 413.23392262 -248.79226442 400.25718605 -240.6875 387.3125 C-234.01696223 376.65707776 -227.42134295 365.95667344 -220.83984375 355.24609375 C-212.84383772 342.23392262 -204.79226442 329.25718605 -196.6875 316.3125 C-190.01696223 305.65707776 -183.42134295 294.95667344 -176.83984375 284.24609375 C-168.84383772 271.23392262 -160.79226442 258.25718605 -152.6875 245.3125 C-146.01696223 234.65707776 -139.42134295 223.95667344 -132.83984375 213.24609375 C-124.84383772 200.23392262 -116.79226442 187.25718605 -108.6875 174.3125 C-102.01696223 163.65707776 -95.42134295 152.95667344 -88.83984375 142.24609375 C-80.84383772 129.23392262 -72.79226442 116.25718605 -64.6875 103.3125 C-58.01696223 92.65707776 -51.42134295 81.95667344 -44.83984375 71.24609375 C-32.05622092 50.44287184 -19.13815214 29.72288235 -6.125 9.0625 C-5.3659436 7.854729 -5.3659436 7.854729 -4.59155273 6.62255859 C-3.90041382 5.52741943 -3.90041382 5.52741943 -3.1953125 4.41015625 C-2.79328613 3.77215088 -2.39125977 3.13414551 -1.97705078 2.47680664 C-1 1 -1 1 0 0 Z " fill="#FEFAFE" transform="translate(736,1088)"/>
<path d="M0 0 C0.33 0.66 0.66 1.32 1 2 C0.67 2.66 0.34 3.32 0 4 C57.75 4 115.5 4 175 4 C172.36239125 10.59402188 172.36239125 10.59402188 170 13 C167.70800781 13.51898193 167.70800781 13.51898193 164.953125 13.54589844 C163.37696663 13.57546883 163.37696663 13.57546883 161.76896667 13.6056366 C160.02707817 13.60748711 160.02707817 13.60748711 158.25 13.609375 C156.39433159 13.63424736 156.39433159 13.63424736 154.50117493 13.65962219 C151.05832702 13.70088009 147.61625787 13.72381529 144.17325211 13.73842239 C141.26679129 13.75390604 138.3605626 13.78416378 135.45422459 13.81448841 C94.30645738 14.24014838 53.14921888 14.09218081 12 14 C11.34 15.32 10.68 16.64 10 18 C2.84593383 18.74521523 -1.30223306 17.34707015 -7 13 C-5.35821735 8.22390502 -2.73453298 4.20617096 0 0 Z " fill="#FD00D6" transform="translate(39,2212)"/>
<path d="M0 0 C0.33 0.66 0.66 1.32 1 2 C59.74 2.33 118.48 2.66 179 3 C176.48291168 9.29272079 176.48291168 9.29272079 174 11 C171.24317551 11.3719368 171.24317551 11.3719368 167.8336792 11.36749268 C166.5417717 11.37306183 165.2498642 11.37863098 163.91880798 11.3843689 C162.48330507 11.37534503 161.04780398 11.36602721 159.61230469 11.35644531 C158.10240053 11.35723616 156.59249657 11.35933335 155.08259583 11.36264038 C150.97175964 11.36778627 146.8611728 11.35420435 142.7503767 11.33711338 C138.4302908 11.32205402 134.11020786 11.3232504 129.7901001 11.32244873 C122.51318128 11.31875049 115.23635643 11.30377441 107.95947266 11.28125 C98.68775594 11.25260502 89.41611577 11.24204597 80.14435959 11.2375679 C72.11583075 11.23354522 64.08731783 11.22103399 56.0588007 11.20722103 C53.51115264 11.2031676 50.96350512 11.20021864 48.41585541 11.19742584 C30.25473604 11.17419709 12.13881709 11.02393928 -6 10 C-5.18957164 8.51969728 -4.37659652 7.04078858 -3.5625 5.5625 C-2.88380859 4.32693359 -2.88380859 4.32693359 -2.19140625 3.06640625 C-1 1 -1 1 0 0 Z " fill="#9F00EB" transform="translate(1297,2213)"/>
<path d="M0 0 C0.33 0.66 0.66 1.32 1 2 C23.78265698 1.89287951 46.56527994 1.78013966 69.3478756 1.66066074 C79.92559059 1.60531981 90.50330896 1.5518364 101.08105469 1.50268555 C110.29774288 1.45985436 119.51440614 1.41357908 128.73105586 1.36312145 C133.61378043 1.33651192 138.49650003 1.31165864 143.37925339 1.29092598 C147.97070953 1.27137588 152.5621182 1.24723701 157.15353203 1.21950912 C158.84264325 1.21013006 160.53176491 1.20245787 162.22089195 1.19658089 C164.51925183 1.18833421 166.81749603 1.17406169 169.11581421 1.15821838 C170.4044808 1.15176583 171.69314739 1.14531328 173.02086449 1.1386652 C175.92769084 1.20496435 175.92769084 1.20496435 178 0 C176.75125677 3.45805817 175.53575859 6.30920052 173 9 C170.62421322 9.50780869 170.62421322 9.50780869 167.7587738 9.51898193 C166.67102158 9.53289474 165.58326935 9.54680756 164.46255493 9.56114197 C163.26762421 9.5561116 162.07269348 9.55108124 160.84155273 9.54589844 C158.95236366 9.56140495 158.95236366 9.56140495 157.02500916 9.57722473 C153.55544875 9.6052056 150.08624428 9.60848529 146.6165874 9.60750484 C142.94459436 9.61065062 139.27275693 9.63633936 135.60084534 9.65948486 C128.59612206 9.700186 121.59149137 9.72039484 114.58666807 9.73345876 C106.7859997 9.74900624 98.98550559 9.78753386 91.18493342 9.82804775 C59.1236213 9.99274814 27.06169931 10.04646183 -5 10 C-3.77207194 6.10266311 -2.65575614 3.13862089 0 0 Z " fill="#AB00E8" transform="translate(462,2214)"/>
<path d="M0 0 C0.33 0.66 0.66 1.32 1 2 C0.01 3.485 0.01 3.485 -1 5 C22.02609967 5.07001619 45.05218184 5.12295189 68.07836628 5.15543652 C78.76932135 5.17091919 89.46021037 5.19203541 100.15112305 5.22631836 C109.46704962 5.2561779 118.78292836 5.27556481 128.09890145 5.28226548 C133.03370501 5.28618359 137.9683717 5.29542066 142.90313148 5.31719017 C147.5446793 5.33750095 152.18603343 5.3438448 156.82762146 5.33932304 C158.53407022 5.34015068 160.24052523 5.34614847 161.94693565 5.35761642 C164.27140828 5.37247623 166.59514334 5.36897791 168.91963196 5.36076355 C170.22212544 5.36352893 171.52461893 5.36629431 172.86658192 5.36914349 C175.99465722 5.27626199 175.99465722 5.27626199 177.942523 3.47745228 C178.29149041 2.98989303 178.64045782 2.50233377 179 2 C177.6187788 6.02856183 176.03492272 8.98405446 173 12 C169.71229935 12.61523914 169.71229935 12.61523914 165.72344971 12.60127258 C164.98907614 12.60554471 164.25470256 12.60981683 163.49807525 12.61421841 C161.03618311 12.62245746 158.57599305 12.59495088 156.11425781 12.56762695 C154.35014384 12.56621667 152.58602693 12.56700808 150.82191467 12.56983948 C146.03072557 12.57127581 141.24016059 12.54185096 136.44911671 12.50696969 C131.44297755 12.47574232 126.43682455 12.47277831 121.43060303 12.46684265 C111.94974359 12.45129356 102.46917195 12.41025064 92.98843932 12.3600952 C82.19536404 12.30423491 71.4022751 12.27672357 60.60909128 12.25161803 C38.40590014 12.19933576 16.20296819 12.11137272 -6 12 C-5.3552997 8.40365977 -4.66861045 6.10510598 -2.4375 3.1875 C-1.98246094 2.58292969 -1.52742187 1.97835937 -1.05859375 1.35546875 C-0.53458984 0.68451172 -0.53458984 0.68451172 0 0 Z " fill="#CF00BE" transform="translate(895,2210)"/>
<path d="M0 0 C34.98 0 69.96 0 106 0 C103.30336218 6.74159456 103.30336218 6.74159456 101 9 C98.2638855 9.51898193 98.2638855 9.51898193 94.90576172 9.54589844 C93.01505447 9.57547638 93.01505447 9.57547638 91.08615112 9.60565186 C89.7006637 9.60731951 88.31517568 9.60854806 86.9296875 9.609375 C85.49169078 9.62439116 84.05371109 9.64112539 82.61575317 9.65948486 C78.80801707 9.70330669 75.0005097 9.72315091 71.19256592 9.73822021 C67.41728947 9.75740929 63.64228889 9.79973265 59.8671875 9.83984375 C42.91197347 10.00957234 25.95595863 10.03862744 9 10 C9 9.67 9 9.34 9 9 C17.415 8.505 17.415 8.505 26 8 C26 7.67 26 7.34 26 7 C23.03 6.505 23.03 6.505 20 6 C20 5.67 20 5.34 20 5 C59.105 4.505 59.105 4.505 99 4 C83.45703307 3.97091983 83.45703307 3.97091983 67.9140625 3.95117188 C61.57583785 3.94519136 55.23762763 3.93811209 48.89941406 3.92456055 C43.79011629 3.91370473 38.68083399 3.90771742 33.57152557 3.90512276 C31.62106838 3.90327338 29.67061205 3.89966209 27.72016144 3.89426994 C24.99083111 3.88702381 22.26156494 3.88601058 19.53222656 3.88647461 C18.72374268 3.88287933 17.91525879 3.87928406 17.08227539 3.87557983 C13.54808527 3.88209282 10.40014653 4.0491825 7 5 C7 4.01 7 3.02 7 2 C4.69 1.67 2.38 1.34 0 1 C0 0.67 0 0.34 0 0 Z " fill="#AF00E9" transform="translate(108,2216)"/>
<path d="M0 0 C0.33 0.66 0.66 1.32 1 2 C2.24056152 1.93071289 3.48112305 1.86142578 4.75927734 1.79003906 C25.85307875 0.73152699 46.96255052 0.77783948 68.07763672 0.75976562 C73.5561299 0.754238 79.03438 0.73005704 84.5127964 0.70179367 C88.78881514 0.68307132 93.06477551 0.67795713 97.34083176 0.67642975 C99.36035908 0.67343666 101.37988622 0.66552406 103.3993721 0.65224457 C115.0031323 0.58122492 125.7176302 1.11624086 137 4 C137 4.33 137 4.66 137 5 C91.13 5 45.26 5 -2 5 C-1.34 3.35 -0.68 1.7 0 0 Z " fill="#FF00BE" transform="translate(460,2217)"/>
<path d="M0 0 C-1.08857727 2.46452332 -1.08857727 2.46452332 -3 5 C-5.94230652 5.60127258 -5.94230652 5.60127258 -9.58276367 5.56762695 C-10.24644455 5.56835709 -10.91012543 5.56908722 -11.59391785 5.56983948 C-13.78610179 5.56635781 -15.9761565 5.52747641 -18.16796875 5.48828125 C-19.68824604 5.47895501 -21.20853837 5.471838 -22.72883606 5.46684265 C-26.72905005 5.44775745 -30.72835535 5.39864509 -34.72821045 5.34332275 C-38.81021837 5.29216216 -42.89237322 5.26933553 -46.97460938 5.24414062 C-54.9834898 5.19052646 -62.99163185 5.10519687 -71 5 C-71 4.67 -71 4.34 -71 4 C-71.96022064 3.99191315 -72.92044128 3.98382629 -73.90975952 3.97549438 C-82.94496848 3.89811604 -91.9800253 3.81039813 -101.01503563 3.71247292 C-105.66038381 3.66245931 -110.30570869 3.61612991 -114.95117188 3.578125 C-119.43164384 3.54133592 -123.91192316 3.49499376 -128.39223099 3.44193649 C-130.104271 3.42335851 -131.81635236 3.40826322 -133.52845383 3.39665604 C-135.92070122 3.37985148 -138.31250412 3.35083148 -140.70458984 3.31884766 C-141.77381432 3.31560738 -141.77381432 3.31560738 -142.86463928 3.31230164 C-147.77189568 3.22810432 -147.77189568 3.22810432 -150 1 C-135.87507107 0.82715341 -121.75007138 0.66078993 -107.625 0.5 C-106.58194199 0.48812275 -105.53888397 0.4762455 -104.46421814 0.46400833 C-69.64073562 0.06957426 -34.82572107 -0.14301692 0 0 Z " fill="#FE00A4" transform="translate(1475,2218)"/>
<path d="M0 0 C0.81455658 0.00045319 1.62911316 0.00090637 2.46835327 0.00137329 C3.74881531 -0.00366463 3.74881531 -0.00366463 5.05514526 -0.00880432 C7.89227736 -0.01834507 10.72935063 -0.02025907 13.5664978 -0.02133179 C15.5308637 -0.02454248 17.49522935 -0.0279064 19.45959473 -0.03141785 C23.58393915 -0.03741713 27.7082626 -0.03925696 31.83261108 -0.03866577 C37.12459695 -0.03856417 42.41644859 -0.05221109 47.70840263 -0.06943798 C51.76780824 -0.08054272 55.82718125 -0.08258544 59.88660049 -0.08205605 C61.83788643 -0.08323867 63.78917313 -0.0876762 65.74044418 -0.09538841 C68.46755177 -0.10515646 71.19436623 -0.10232277 73.92147827 -0.09628296 C74.73198639 -0.10190247 75.54249451 -0.10752197 76.37756348 -0.11331177 C80.22468271 -0.0915971 82.04632771 -0.03868477 85.3243103 2.14663696 C81.64133559 4.60195344 79.7712707 4.41944366 75.37435913 4.46548462 C74.67166397 4.47553024 73.96896881 4.48557587 73.24497986 4.4959259 C70.92377536 4.52680123 68.60268643 4.54380484 66.28134155 4.56069946 C64.67136131 4.57940764 63.06139091 4.5989808 61.45143127 4.61938477 C57.21496375 4.67074907 52.97846442 4.71035169 48.74185181 4.74752808 C44.4183462 4.78754084 40.09497338 4.8386456 35.77157593 4.88882446 C27.28924471 4.98563463 18.80684786 5.07002302 10.3243103 5.14663696 C10.3243103 5.47663696 10.3243103 5.80663696 10.3243103 6.14663696 C-6.41810103 7.47947836 -23.18919422 7.26449219 -39.9703064 7.21530151 C-43.89292862 7.20492502 -47.8155576 7.20047373 -51.7381897 7.19546509 C-59.38404107 7.18485869 -67.02985966 7.16787565 -74.6756897 7.14663696 C-74.6756897 6.81663696 -74.6756897 6.48663696 -74.6756897 6.14663696 C-55.2056897 5.81663696 -35.7356897 5.48663696 -15.6756897 5.14663696 C-15.3456897 4.15663696 -15.0156897 3.16663696 -14.6756897 2.14663696 C-12.62490845 1.91877238 -10.5741272 1.6909078 -8.52334595 1.46304321 C-5.53094466 0.9506024 -3.39983636 0.01966176 0 0 Z " fill="#FF00A0" transform="translate(124.67568969726563,2218.8533630371094)"/>
<path d="M0 0 C0.33 0.66 0.66 1.32 1 2 C0.67 2.66 0.34 3.32 0 4 C24.09 4.33 48.18 4.66 73 5 C73.495 5.99 73.495 5.99 74 7 C71.06291999 8.46854 68.10656295 8.13019549 64.88818359 8.11352539 C63.79046883 8.11374443 63.79046883 8.11374443 62.670578 8.1139679 C60.24650124 8.11327003 57.82250088 8.10548354 55.3984375 8.09765625 C53.71977785 8.09579162 52.04111766 8.09436793 50.36245728 8.09336853 C45.94012962 8.08954688 41.51783472 8.07971959 37.09552002 8.06866455 C32.58451785 8.05844286 28.07351041 8.05386928 23.5625 8.04882812 C14.70831893 8.03809702 5.85416219 8.02102481 -3 8 C-2.45276317 4.62537285 -1.9451 2.91765 0 0 Z " fill="#FC00E2" transform="translate(39,2212)"/>
<path d="M0 0 C0.33 0.66 0.66 1.32 1 2 C11.23 2 21.46 2 32 2 C32 2.66 32 3.32 32 4 C60.05 4.33 88.1 4.66 117 5 C117 5.33 117 5.66 117 6 C77.73 6 38.46 6 -2 6 C-1 1 -1 1 0 0 Z " fill="#FF00C8" transform="translate(1295,2216)"/>
<path d="M0 0 C-34.65 0 -69.3 0 -105 0 C-105 -0.33 -105 -0.66 -105 -1 C-100.57415018 -2.08617048 -96.22720181 -2.17810902 -91.6965332 -2.22119141 C-90.46132179 -2.23845024 -90.46132179 -2.23845024 -89.20115662 -2.25605774 C-86.48440223 -2.29267326 -83.7676249 -2.32237777 -81.05078125 -2.3515625 C-79.15373941 -2.37469927 -77.25670065 -2.39808976 -75.35966492 -2.42172241 C-71.38279087 -2.47014009 -67.40589606 -2.51506432 -63.42895508 -2.55761719 C-58.35295828 -2.61226539 -53.27712768 -2.67615762 -48.20127583 -2.74279213 C-44.2814709 -2.79310501 -40.36161827 -2.83812801 -36.44173241 -2.88163376 C-34.57157571 -2.90307547 -32.7014375 -2.9262021 -30.83132362 -2.9510994 C-6.53553945 -3.26776973 -6.53553945 -3.26776973 0 0 Z " fill="#FF0066" transform="translate(597,2222)"/>
<path d="M0 0 C0.33 0.99 0.66 1.98 1 3 C5.2710989 2.8613598 9.54179892 2.71286099 13.8125 2.5625 C15.63491211 2.50352539 15.63491211 2.50352539 17.49414062 2.44335938 C18.65751953 2.40146484 19.82089844 2.35957031 21.01953125 2.31640625 C22.09307861 2.27974854 23.16662598 2.24309082 24.27270508 2.20532227 C27.09311553 2.10458153 27.09311553 2.10458153 30 1 C32.90621604 0.90840313 35.7880145 0.87403828 38.6940918 0.88647461 C39.5821048 0.88632858 40.4701178 0.88618256 41.38504028 0.8860321 C44.32312454 0.88672932 47.26114556 0.89451282 50.19921875 0.90234375 C52.23517319 0.90420861 54.27112808 0.90563219 56.30708313 0.90663147 C61.66811357 0.91045131 67.02911697 0.92027708 72.39013672 0.93133545 C77.8596968 0.94156101 83.32926124 0.94613155 88.79882812 0.95117188 C99.53256397 0.96189979 110.26627974 0.97896985 121 1 C121 1.33 121 1.66 121 2 C119.97127274 2.01030746 118.94254547 2.02061493 117.88264465 2.03123474 C108.1862047 2.12900589 98.48982838 2.23174351 88.79349232 2.33933926 C83.80855805 2.39449525 78.82361784 2.44790349 73.83862305 2.49731445 C69.02752843 2.54506609 64.21650371 2.59741269 59.40549278 2.65294075 C57.57031686 2.67331541 55.73512181 2.69203645 53.89991188 2.70907402 C51.32879351 2.73322645 48.75780609 2.76326593 46.18676758 2.79467773 C45.42863266 2.8004332 44.67049774 2.80618866 43.88938904 2.81211853 C40.12972641 2.86430251 36.66574439 3.18344066 33 4 C30.34836945 4.08160753 27.72474527 4.11671195 25.07421875 4.09765625 C23.95283257 4.09553383 23.95283257 4.09553383 22.80879211 4.09336853 C20.43498635 4.08779764 18.06127697 4.0752506 15.6875 4.0625 C14.07226699 4.05748123 12.4570325 4.05291899 10.84179688 4.04882812 C6.89449445 4.03783775 2.94726353 4.02059332 -1 4 C-0.67 2.68 -0.34 1.36 0 0 Z " fill="#FB00D6" transform="translate(459,2218)"/>
<path d="M0 0 C1.08308441 -0.00021904 1.08308441 -0.00021904 2.18804932 -0.0004425 C4.57966087 0.00025532 6.97119498 0.00804164 9.36279297 0.01586914 C11.01903236 0.01773378 12.67527231 0.01915747 14.33151245 0.02015686 C18.69465655 0.0239784 23.05776747 0.03380561 27.42089844 0.04486084 C31.87157746 0.05508275 36.32226184 0.05965615 40.77294922 0.06469727 C49.50864155 0.07542819 58.24430688 0.09250027 66.97998047 0.11352539 C66.97998047 0.44352539 66.97998047 0.77352539 66.97998047 1.11352539 C45.19998047 1.44352539 23.41998047 1.77352539 0.97998047 2.11352539 C1.96998047 3.10352539 2.95998047 4.09352539 3.97998047 5.11352539 C4.96998047 5.11352539 5.95998047 5.11352539 6.97998047 5.11352539 C4.25177085 7.84173501 2.05913731 7.85754224 -1.68798828 8.22680664 C-5.42184913 8.04542982 -7.21197798 6.48956055 -10.02001953 4.11352539 C-9.69001953 3.12352539 -9.36001953 2.13352539 -9.02001953 1.11352539 C-6.03437167 -0.37929854 -3.33018235 -0.00564438 0 0 Z " fill="#FC00C1" transform="translate(42.02001953125,2220.886474609375)"/>
<path d="M0 0 C0.66 0.33 1.32 0.66 2 1 C-13.18 16.18 -28.36 31.36 -44 47 C-44 44 -44 44 -42.49609375 42.23828125 C-41.81675781 41.60277344 -41.13742187 40.96726562 -40.4375 40.3125 C-37.72256726 37.75633526 -35.2109673 35.12097916 -32.78125 32.296875 C-28.74269548 27.63767096 -24.43194276 23.284819 -20.0625 18.9375 C-19.30259766 18.17373047 -18.54269531 17.40996094 -17.75976562 16.62304688 C-13.54679991 12.41727666 -9.25272048 8.37505336 -4.72436523 4.51000977 C-3.07717833 3.06758431 -1.52915468 1.56608654 0 0 Z " fill="#EB42D4" transform="translate(1978,417)"/>
<path d="M0 0 C1.85044922 0.01353516 1.85044922 0.01353516 3.73828125 0.02734375 C6.74240024 0.05063149 9.74608943 0.08333244 12.75 0.125 C12.42 1.115 12.09 2.105 11.75 3.125 C-0.79 3.125 -13.33 3.125 -26.25 3.125 C-26.25 2.795 -26.25 2.465 -26.25 2.125 C-17.42465025 0.32544018 -8.99107307 -0.12690983 0 0 Z " fill="#FF00A8" transform="translate(1057.25,2217.875)"/>
<path d="M0 0 C21.12 0 42.24 0 64 0 C64 0.33 64 0.66 64 1 C35.29 1.495 35.29 1.495 6 2 C5.34 3.32 4.68 4.64 4 6 C1.03 6 -1.94 6 -5 6 C-2 4 -2 4 1 3 C-0.32 2.67 -1.64 2.34 -3 2 C-2.01 2 -1.02 2 0 2 C0 1.34 0 0.68 0 0 Z " fill="#FF00C1" transform="translate(45,2224)"/>
<path d="M0 0 C2.05078125 0.03255208 4.1015625 0.06510417 6.15234375 0.09765625 C4.83234375 2.40765625 3.51234375 4.71765625 2.15234375 7.09765625 C1.82234375 6.10765625 1.49234375 5.11765625 1.15234375 4.09765625 C-0.84430939 2.41227024 -0.84430939 2.41227024 -2.84765625 1.09765625 C-1.84765625 0.09765625 -1.84765625 0.09765625 0 0 Z " fill="#E400D9" transform="translate(207.84765625,2216.90234375)"/>
<path d="M0 0 C7 0 7 0 9 1 C6.60236815 3.39763185 5.66726502 3.34280586 2.375 3.625 C1.55773438 3.69976563 0.74046875 3.77453125 -0.1015625 3.8515625 C-0.72804687 3.90054688 -1.35453125 3.94953125 -2 4 C-1.34 2.68 -0.68 1.36 0 0 Z " fill="#F5006C" transform="translate(40,2225)"/>
<path d="M0 0 C-0.66 1.32 -1.32 2.64 -2 4 C-4.97 4 -7.94 4 -11 4 C-7.32740617 1.55160412 -4.45351799 0 0 0 Z " fill="#0005FF" transform="translate(51,2226)"/>
<path d="M0 0 C1.58409994 0.11487748 3.16728963 0.24234508 4.75 0.375 C6.07257812 0.47941406 6.07257812 0.47941406 7.421875 0.5859375 C10 1 10 1 14 3 C10.37 3 6.74 3 3 3 C3 2.34 3 1.68 3 1 C2.01 0.67 1.02 0.34 0 0 Z " fill="#FF005B" transform="translate(583,2219)"/>
<path d="M0 0 C-3.06246747 1.78409802 -5.22079273 2.22880021 -8.75 2.125 C-9.54921875 2.10695313 -10.3484375 2.08890625 -11.171875 2.0703125 C-11.77515625 2.04710938 -12.3784375 2.02390625 -13 2 C-9.02291084 -1.97708916 -5.28744325 -0.91513441 0 0 Z " fill="#FF00B5" transform="translate(124,2223)"/>
<path d="M0 0 C0.66 0 1.32 0 2 0 C1.67 0.66 1.34 1.32 1 2 C0.67 1.34 0.34 0.68 0 0 Z " fill="#FF00CA" transform="translate(2796,114)"/>
</svg>
