<?xml version="1.0" encoding="UTF-8"?>
<svg version="1.1" xmlns="http://www.w3.org/2000/svg" width="2202" height="900">
<path d="M0 0 C0.66 0.66 1.32 1.32 2 2 C1.78303528 4.03916931 1.78303528 4.03916931 1.11645508 6.59350586 C0.87111526 7.55728149 0.62577545 8.52105713 0.3730011 9.51403809 C0.09135605 10.57030396 -0.190289 11.62656982 -0.48046875 12.71484375 C-0.76432938 13.81662964 -1.04819 14.91841553 -1.34065247 16.05358887 C-2.27874448 19.68447121 -3.23315363 23.31085938 -4.1875 26.9375 C-4.83775214 29.44313907 -5.48683261 31.94908249 -6.13476562 34.45532227 C-7.45061825 39.53939863 -8.77235314 44.62188646 -10.09912109 49.703125 C-11.80875941 56.25600469 -13.49881372 62.81368994 -15.17578125 69.375 C-15.41727905 70.31971664 -15.65877686 71.26443329 -15.90759277 72.23777771 C-17.05599741 76.73364245 -18.20195396 81.23012827 -19.34716797 85.72680664 C-19.77692086 87.412948 -20.20676857 89.09906519 -20.63671875 90.78515625 C-20.84035034 91.58413834 -21.04398193 92.38312042 -21.25378418 93.20631409 C-22.49978464 98.08215707 -23.77992385 102.94743512 -25.08203125 107.80859375 C-25.38044922 108.94176025 -25.67886719 110.07492676 -25.98632812 111.24243164 C-26.51275891 113.23848169 -27.05062166 115.23157653 -27.60351562 117.22045898 C-28.52015561 120.7341336 -29.16418175 123.21104607 -28.41796875 126.796875 C-26.69265079 129.47753431 -24.73764135 131.60195293 -22.5 133.875 C-16.89117706 139.88097948 -12.44920135 146.37424044 -8.06933594 153.31054688 C-7.16903665 154.73293753 -6.24710317 156.1416017 -5.3203125 157.546875 C-0.23058454 165.52536747 3.3331827 174.30464375 7 183 C7.40347656 183.93457031 7.80695312 184.86914062 8.22265625 185.83203125 C28.31614283 236.18777293 17.01515396 294.29136464 -3.25 342.5 C-6.663387 350.39634741 -10.4488647 358.09724264 -14.375 365.75 C-14.88708008 366.75740234 -15.39916016 367.76480469 -15.92675781 368.80273438 C-16.41241211 369.72892578 -16.89806641 370.65511719 -17.3984375 371.609375 C-17.82817871 372.43405273 -18.25791992 373.25873047 -18.70068359 374.10839844 C-20 376 -20 376 -23 377 C-25.07788086 376.12304688 -25.07788086 376.12304688 -27.46484375 374.71875 C-28.78125854 373.95473877 -28.78125854 373.95473877 -30.12426758 373.17529297 C-31.05263428 372.62244629 -31.98100098 372.06959961 -32.9375 371.5 C-33.87940186 370.94844238 -34.82130371 370.39688477 -35.79174805 369.82861328 C-37.66967872 368.72835279 -39.54545683 367.62440916 -41.41894531 366.51660156 C-43.61865128 365.22407664 -45.82875746 363.95750419 -48.0546875 362.7109375 C-49.12976562 362.10507812 -50.20484375 361.49921875 -51.3125 360.875 C-52.23675781 360.35679687 -53.16101562 359.83859375 -54.11328125 359.3046875 C-54.73589844 358.87414062 -55.35851563 358.44359375 -56 358 C-56 357.34 -56 356.68 -56 356 C-56.73452393 355.72486572 -57.46904785 355.44973145 -58.22583008 355.16625977 C-60.8219812 354.07483902 -63.02051643 352.85629192 -65.38671875 351.33984375 C-66.22928223 350.80222412 -67.0718457 350.26460449 -67.93994141 349.71069336 C-68.84663574 349.12553955 -69.75333008 348.54038574 -70.6875 347.9375 C-71.64575684 347.32334229 -72.60401367 346.70918457 -73.59130859 346.07641602 C-84.4198404 339.1199416 -95.18019991 332.05844204 -105.94335938 325.00146484 C-110.41397595 322.07413939 -114.89340174 319.16047604 -119.375 316.25 C-120.16898193 315.73421387 -120.96296387 315.21842773 -121.78100586 314.68701172 C-125.07049298 312.55054417 -128.36054883 310.41495422 -131.65087891 308.27978516 C-133.45505459 307.10893847 -135.25909171 305.93787823 -137.06298828 304.76660156 C-138.74724056 303.67301264 -140.43178533 302.57987398 -142.11669922 301.48730469 C-142.88643066 300.9874707 -143.65616211 300.48763672 -144.44921875 299.97265625 C-145.1973584 299.48812988 -145.94549805 299.00360352 -146.71630859 298.50439453 C-148.31507705 297.45119684 -149.9003899 296.37741831 -151.47509766 295.28857422 C-152.27351074 294.73830566 -153.07192383 294.18803711 -153.89453125 293.62109375 C-154.6110083 293.11892334 -155.32748535 292.61675293 -156.06567383 292.09936523 C-158.06387952 290.75294157 -158.06387952 290.75294157 -161 291 C-162.4983862 292.60758847 -162.4983862 292.60758847 -163.84399414 294.80102539 C-164.39209244 295.6335231 -164.94019073 296.46602081 -165.50489807 297.32374573 C-166.09238327 298.2391362 -166.67986847 299.15452667 -167.28515625 300.09765625 C-167.90087997 301.03870712 -168.5166037 301.979758 -169.15098572 302.94932556 C-171.13137206 305.98074034 -173.09716219 309.02131227 -175.0625 312.0625 C-176.3603536 314.05597335 -177.65917098 316.04881958 -178.95898438 318.04101562 C-181.48399062 321.91261173 -184.00442226 325.78712658 -186.52197266 329.66357422 C-190.95664638 336.48142441 -195.47001946 343.24528283 -200 350 C-201.50141382 352.24906075 -203.00070924 354.49952244 -204.5 356.75 C-207.53393984 361.30334644 -210.57112462 365.8544812 -213.61328125 370.40234375 C-224.78043779 387.11022068 -235.84853024 403.88259708 -246.89770508 420.66870117 C-252.90639758 429.79633723 -258.92286144 438.91773408 -265 448 C-265.87268036 449.30840402 -266.74511 450.61697534 -267.6171875 451.92578125 C-269.22135417 454.33203125 -270.82552083 456.73828125 -272.4296875 459.14453125 C-272.85475586 459.78213379 -273.27982422 460.41973633 -273.71777344 461.07666016 C-275.61279297 463.91918945 -275.61279297 463.91918945 -277.5078125 466.76171875 C-277.89606705 467.34410309 -278.28432159 467.92648743 -278.68434143 468.52651978 C-279.51352503 469.77029036 -280.34271698 471.01405538 -281.17192078 472.2578125 C-283.22510619 475.33749848 -285.27815854 478.41727292 -287.33081055 481.49731445 C-291.07819068 487.11993139 -294.82640987 492.74197263 -298.58151245 498.35943604 C-311.10433762 517.09365198 -323.53843243 535.8851622 -335.92504883 554.7097168 C-342.21796034 564.27213584 -348.5278314 573.82230101 -354.88989258 583.33886719 C-356.66071201 585.98867044 -358.42784608 588.64092826 -360.1953125 591.29296875 C-361.50520833 593.2578125 -362.81510417 595.22265625 -364.125 597.1875 C-364.77597656 598.16396484 -365.42695312 599.14042969 -366.09765625 600.14648438 C-367.41558994 602.12338492 -368.7335425 604.10027288 -370.05151367 606.07714844 C-371.30703627 607.96051099 -372.56241824 609.8439673 -373.81762695 611.72753906 C-377.34468033 617.01973429 -380.874638 622.30996883 -384.40744019 627.59832764 C-397.89252473 647.78645009 -411.33341728 668.00191641 -424.65209961 688.30029297 C-431.11541685 698.14964667 -437.62757592 707.96479624 -444.17547607 717.75808716 C-452.54505437 730.27926453 -460.82395292 742.85977905 -469.10302734 755.44091797 C-477.49713814 768.19525982 -485.92905636 780.9233504 -494.41052246 793.61978149 C-496.58322899 796.87337656 -498.75310071 800.12885823 -500.92282104 803.38444519 C-502.37970448 805.56955602 -503.83811478 807.75364178 -505.296875 809.9375 C-507.02837486 812.53352525 -508.74739902 815.13697296 -510.453125 817.75 C-511.52820313 819.3896875 -511.52820313 819.3896875 -512.625 821.0625 C-513.23601562 822.00222656 -513.84703125 822.94195313 -514.4765625 823.91015625 C-516 826 -516 826 -518 827 C-519.89265526 827.09629849 -521.78873491 827.12796142 -523.68383789 827.12939453 C-524.87590347 827.13254669 -526.06796906 827.13569885 -527.29615784 827.13894653 C-528.59190231 827.1369223 -529.88764679 827.13489807 -531.22265625 827.1328125 C-532.56587237 827.13348638 -533.90908837 827.13445712 -535.25230408 827.13571167 C-538.07438309 827.1371882 -540.89643051 827.13503789 -543.71850586 827.13037109 C-547.31376487 827.12471213 -550.90894859 827.12792854 -554.50420475 827.13394356 C-557.28310192 827.13758327 -560.06198171 827.13639437 -562.84087944 827.13381577 C-564.8043256 827.13283416 -566.76777247 827.1358453 -568.73121643 827.13894653 C-575.23999721 827.12204825 -581.54877789 826.87735575 -588 826 C-586.74960443 822.65299563 -585.33653216 819.75078415 -583.36474609 816.77416992 C-582.83538956 815.97027832 -582.30603302 815.16638672 -581.76063538 814.33813477 C-580.90072243 813.04734009 -580.90072243 813.04734009 -580.0234375 811.73046875 C-579.12648415 810.37260254 -579.12648415 810.37260254 -578.21141052 808.98730469 C-576.27029238 806.05112954 -574.32276278 803.11927059 -572.375 800.1875 C-571.04220507 798.1744712 -569.70976749 796.16120575 -568.37768555 794.14770508 C-564.59134218 788.42766528 -560.79695237 782.71300133 -557 777 C-556.51811218 776.27458008 -556.03622437 775.54916016 -555.53973389 774.80175781 C-551.21472655 768.2910373 -546.88011799 761.78680702 -542.53271484 755.29101562 C-540.22578493 751.84274701 -537.92539948 748.39012699 -535.625 744.9375 C-534.83857867 743.75778783 -534.05212147 742.57809957 -533.265625 741.3984375 C-532.88986328 740.83479492 -532.51410156 740.27115234 -532.12695312 739.69042969 C-530.20963542 736.81445313 -528.29231771 733.93847656 -526.375 731.0625 C-525.96443359 730.44665039 -525.55386719 729.83080078 -525.13085938 729.19628906 C-517.796875 718.1953125 -517.796875 718.1953125 -516.01733398 715.52612305 C-514.73023788 713.59539587 -513.44329708 711.66456516 -512.15649414 709.73364258 C-508.10730756 703.65824359 -504.05535782 697.58470476 -500.00024414 691.51325989 C-497.55112086 687.84594512 -495.10300362 684.17795926 -492.65496826 680.50991821 C-491.44857418 678.70280486 -490.24176236 676.8959703 -489.03448486 675.08944702 C-481.56154676 663.90667204 -474.16148695 652.68084084 -466.85253906 641.39013672 C-463.04391854 635.51456703 -459.15461991 629.69383101 -455.25683594 623.87719727 C-453.02001339 620.53630205 -450.79187754 617.18961577 -448.5625 613.84375 C-444.67649016 608.01289472 -440.78798403 602.18371907 -436.89601135 596.35684204 C-434.54527183 592.83716954 -432.19557466 589.31680172 -429.84594727 585.79638672 C-428.65918789 584.01876577 -427.4720149 582.24142089 -426.28442383 580.46435547 C-418.72936635 569.15827276 -411.24490616 557.8106644 -403.85595703 546.39526367 C-400.02034787 540.4764462 -396.10191046 534.61354362 -392.17529297 528.75488281 C-390.23696869 525.86068362 -388.30637247 522.96134078 -386.375 520.0625 C-385.52608013 518.78903686 -384.67712003 517.51560054 -383.828125 516.2421875 C-383.37501953 515.5625293 -382.92191406 514.88287109 -382.45507812 514.18261719 C-377.796875 507.1953125 -377.796875 507.1953125 -376.01879883 504.52832031 C-374.72682003 502.59026884 -373.43499725 500.65211335 -372.14331055 498.71386719 C-368.14939858 492.72140985 -364.15281148 486.7307547 -360.1529541 480.74226379 C-348.04676667 462.61594672 -335.94474863 444.48850728 -324.03588867 426.23168945 C-319.39997981 419.12539709 -314.71604371 412.05333762 -310 405 C-308.76926874 403.15382081 -307.53880577 401.30746273 -306.30859375 399.4609375 C-303.40577532 395.10635697 -300.4999325 390.75380884 -297.59283447 386.40208435 C-284.10766134 366.21382257 -270.66667328 345.99822162 -257.34790039 325.69970703 C-251.64209053 317.00483012 -245.90649368 308.33108258 -240.12632751 299.68544006 C-237.76327397 296.14935924 -235.40501277 292.61007854 -233.04858398 289.06958008 C-230.32639792 284.9800424 -227.58937874 280.90068658 -224.84765625 276.82421875 C-223.37759716 274.6328172 -221.90754509 272.44141094 -220.4375 270.25 C-219.72190918 269.18918213 -219.00631836 268.12836426 -218.26904297 267.03540039 C-217.60146973 266.03887451 -216.93389648 265.04234863 -216.24609375 264.015625 C-215.64466553 263.12133789 -215.0432373 262.22705078 -214.42358398 261.30566406 C-212.86592742 258.97999352 -212.86592742 258.97999352 -212 256 C-212.56203125 255.64550781 -213.1240625 255.29101562 -213.703125 254.92578125 C-219.87399706 251.01693131 -226.00514074 247.05058003 -232.125 243.0625 C-239.89199447 238.00270137 -247.68800682 232.990016 -255.5 228 C-267.20632509 220.52063728 -278.8611895 212.96491664 -290.49414062 205.37207031 C-293.01624208 203.7261598 -295.53911681 202.08144474 -298.0625 200.4375 C-298.89628174 199.89407959 -299.73006348 199.35065918 -300.58911133 198.79077148 C-305.27843958 195.74259403 -309.99349817 192.74247616 -314.74072266 189.78540039 C-323.33229588 184.42193394 -331.82553914 178.90744465 -340.2512207 173.28741455 C-341.53776537 172.43200266 -342.82747564 171.58133209 -344.12036133 170.73553467 C-345.9370764 169.54518605 -347.74107054 168.3376223 -349.54296875 167.125 C-351.1211438 166.07699219 -351.1211438 166.07699219 -352.73120117 165.0078125 C-353.47990479 164.34523437 -354.2286084 163.68265625 -355 163 C-355 158.96138213 -354.99301046 158.4858109 -352.76171875 155.53125 C-352.0349292 154.56034424 -352.0349292 154.56034424 -351.29345703 153.56982422 C-350.76349121 152.88678223 -350.23352539 152.20374023 -349.6875 151.5 C-349.14206543 150.78730957 -348.59663086 150.07461914 -348.03466797 149.34033203 C-343.46886269 143.45037715 -338.66176036 137.8829538 -333.47460938 132.52587891 C-332.45365211 131.46942478 -331.43976855 130.40610583 -330.43164062 129.33740234 C-293.06701331 89.75187872 -240.31946624 67.97700864 -186.27490234 65.89501953 C-165.80396389 65.3059541 -145.94394526 67.11137162 -126.00390625 71.78125 C-125.14522949 71.97605957 -124.28655273 72.17086914 -123.40185547 72.37158203 C-121 73 -121 73 -118.96142578 73.84326172 C-115.56862851 75.15668617 -113.82273166 75.35756735 -110.41821289 73.87792969 C-107.42390434 72.08420743 -104.59190943 70.1513746 -101.75 68.125 C-100.72583984 67.42479736 -99.70167969 66.72459473 -98.64648438 66.00317383 C-96.63424718 64.62544459 -94.62874778 63.23781115 -92.63085938 61.83935547 C-89.62013092 59.73441596 -86.56992695 57.70476074 -83.5 55.6875 C-81.66628123 54.45890842 -79.83295223 53.2297349 -78 52 C-75.75041986 50.49936544 -73.50042047 48.99937289 -71.25 47.5 C-69.95309929 46.63545523 -68.6562256 45.77086994 -67.359375 44.90625 C-44.90625 29.9375 -22.453125 14.96875 0 0 Z M-281 139.4375 C-281.60618164 139.86272949 -282.21236328 140.28795898 -282.83691406 140.72607422 C-284.26547605 141.76331256 -285.63925851 142.87526211 -287 144 C-287 144.66 -287 145.32 -287 146 C-287.54011719 146.22429687 -288.08023437 146.44859375 -288.63671875 146.6796875 C-291.74757542 148.41765371 -294.22239742 150.71051144 -296.8125 153.125 C-297.34149902 153.61419922 -297.87049805 154.10339844 -298.41552734 154.60742188 C-303.46307726 159.33226212 -308.15602136 164.23403203 -312 170 C-306.19389086 174.51676509 -300.16896442 178.53482478 -293.9375 182.4375 C-286.04409251 187.42045551 -278.18771886 192.45390397 -270.375 197.5625 C-269.42020752 198.18664795 -268.46541504 198.8107959 -267.48168945 199.45385742 C-265.57945338 200.697708 -263.67735193 201.94176447 -261.77539062 203.18603516 C-257.39663807 206.04793975 -253.0113248 208.89971906 -248.625 211.75 C-247.39632202 212.54845337 -247.39632202 212.54845337 -246.14282227 213.36303711 C-239.49906322 217.67878356 -232.84964742 221.98573629 -226.1953125 226.28515625 C-223.22766216 228.20337458 -220.26501006 230.12908693 -217.3046875 232.05859375 C-216.53213623 232.56116699 -215.75958496 233.06374023 -214.96362305 233.58154297 C-213.48482221 234.54372316 -212.00705937 235.50750124 -210.53051758 236.47314453 C-209.86431396 236.9061084 -209.19811035 237.33907227 -208.51171875 237.78515625 C-207.92865967 238.16551025 -207.34560059 238.54586426 -206.74487305 238.93774414 C-204.87795554 240.07429907 -202.95900962 241.03278593 -201 242 C-197.03251742 236.13399353 -193.06756484 230.26628277 -189.10424805 224.39746094 C-187.75975816 222.40717219 -186.41472009 220.41725363 -185.0690918 218.42773438 C-178.23639682 208.32479826 -171.41298795 198.22431633 -164.87255859 187.92895508 C-161.99344753 183.42560495 -159.01938301 178.98639858 -156.04296875 174.546875 C-153.66624083 170.99767142 -151.295056 167.44480852 -148.92578125 163.890625 C-148.56001984 163.34206345 -148.19425842 162.79350189 -147.81741333 162.22831726 C-145.89625096 159.34657371 -143.97665477 156.46380386 -142.05957031 153.5793457 C-138.53715271 148.28281228 -135.00606802 142.9936114 -131.41717529 137.74180603 C-130.26996942 136.06229771 -129.12681904 134.38010282 -127.98486328 132.69702148 C-126.56061183 130.6009805 -125.12825709 128.51041782 -123.68701172 126.42602539 C-123.05424316 125.49137451 -122.42147461 124.55672363 -121.76953125 123.59375 C-121.20854736 122.77583984 -120.64756348 121.95792969 -120.06958008 121.11523438 C-119.71661865 120.41720703 -119.36365723 119.71917969 -119 119 C-119.33 118.01 -119.66 117.02 -120 116 C-122.54062985 114.99960793 -124.93983842 114.21399912 -127.5625 113.5 C-128.32103271 113.28569336 -129.07956543 113.07138672 -129.86108398 112.85058594 C-137.48887206 110.75584699 -145.18671098 109.22626381 -153 108 C-154.71509766 107.72349609 -154.71509766 107.72349609 -156.46484375 107.44140625 C-200.63120196 102.18642505 -244.78469887 113.93102448 -281 139.4375 Z M-67 148 C-67.34110809 148.51792618 -67.68221619 149.03585236 -68.03366089 149.56947327 C-71.63554573 155.03826391 -75.23802302 160.50666395 -78.84082031 165.97485352 C-80.17918355 168.00633214 -81.51740366 170.03790506 -82.85546875 172.06958008 C-90.53825672 183.73465149 -98.23738085 195.38789253 -106 207 C-107.66732042 209.49956438 -109.33368991 211.99976202 -111 214.5 C-111.83331556 215.75001185 -112.66664676 217.00001327 -113.5 218.25 C-113.9125 218.86875 -114.325 219.4875 -114.75 220.125 C-117.671875 224.5078125 -120.59375 228.890625 -123.515625 233.2734375 C-123.92876953 233.8931543 -124.34191406 234.51287109 -124.76757812 235.15136719 C-125.96484375 236.94726563 -127.16210938 238.74316406 -128.359375 240.5390625 C-128.75205566 241.1280835 -129.14473633 241.71710449 -129.54931641 242.32397461 C-135.61889648 251.42834473 -135.61889648 251.42834473 -141.68847656 260.53271484 C-142.3275293 261.49129395 -142.96658203 262.44987305 -143.625 263.4375 C-145.75 266.625 -147.875 269.8125 -150 273 C-148.04411158 277.50962337 -144.88298432 279.31216594 -140.8125 281.8125 C-139.26637316 282.78688202 -137.72083188 283.76219362 -136.17578125 284.73828125 C-135.34256348 285.26115723 -134.5093457 285.7840332 -133.65087891 286.32275391 C-128.89958799 289.32895842 -124.20380707 292.4202516 -119.5 295.5 C-117.51850768 296.79339554 -115.53674038 298.08636991 -113.5546875 299.37890625 C-112.60561523 299.99781738 -111.65654297 300.61672852 -110.67871094 301.25439453 C-98.91681051 308.91914007 -87.10249178 316.50047316 -75.27416992 324.06225586 C-66.49550144 329.67652843 -57.73993462 335.32565455 -49 341 C-46.40067642 338.69037274 -45.12049297 336.48162852 -43.73046875 333.30859375 C-43.11401489 331.90552979 -43.11401489 331.90552979 -42.48510742 330.47412109 C-42.05689697 329.47203613 -41.62868652 328.46995117 -41.1875 327.4375 C-40.74317627 326.40189941 -40.29885254 325.36629883 -39.84106445 324.29931641 C-34.57792094 311.85672007 -30.44633019 299.37376963 -27.25 286.25 C-27.05108154 285.43515137 -26.85216309 284.62030273 -26.6472168 283.78076172 C-18.30014273 247.80705682 -21.71719157 209.18847802 -40.9140625 177.23046875 C-46.10404296 169.19280239 -51.94393085 161.87870045 -58.375 154.8125 C-58.88708008 154.24716553 -59.39916016 153.68183105 -59.92675781 153.09936523 C-62.25422258 150.6008542 -63.7090331 149.09698897 -67 148 Z " fill="#012FCF" transform="translate(1105,32)"/>
<path d="M0 0 C6.01900769 3.09921805 11.65473539 6.69843255 17.26025391 10.47949219 C24.10910632 15.09469433 31.02213871 19.61044295 37.9375 24.125 C39.13013574 24.90395791 40.32276286 25.682929 41.51538086 26.46191406 C44.34321668 28.30851141 47.17141157 30.15455576 50 32 C49.38334703 35.05363842 48.40082664 37.22066776 46.69140625 39.81640625 C45.95531128 40.94224121 45.95531128 40.94224121 45.2043457 42.09082031 C44.66253662 42.90647461 44.12072754 43.72212891 43.5625 44.5625 C42.9955542 45.42584961 42.4286084 46.28919922 41.84448242 47.17871094 C36.48606548 55.3189839 31.05477964 63.4113593 25.63430786 71.51040649 C20.74335838 78.82102314 15.93988582 86.17124742 11.32324219 93.65844727 C8.44063856 98.32631377 5.43451643 102.90236112 2.37426758 107.45532227 C-2.24049881 114.33156029 -6.77597501 121.25953696 -11.3125 128.1875 C-11.72884705 128.82309845 -12.14519409 129.4586969 -12.57415771 130.11355591 C-18.09670905 138.54543486 -23.59317856 146.99368978 -29.07080078 155.45483398 C-34.09583629 163.19230971 -39.23822516 170.85089231 -44.37063599 178.51727295 C-49.25989739 185.8256092 -54.06160314 193.17366218 -58.67675781 200.65844727 C-61.56267005 205.33167148 -64.57180896 209.91327212 -67.63671875 214.47070312 C-72.14948646 221.19228034 -76.57119768 227.97299485 -81 234.75 C-87.46497854 244.64216513 -93.98685481 254.49359398 -100.5625 264.3125 C-105.72489382 272.02206985 -110.80806486 279.76303679 -115.67822266 287.66064453 C-118.5601662 292.32788472 -121.56597649 296.90309447 -124.62573242 301.45532227 C-129.24049881 308.33156029 -133.77597501 315.25953696 -138.3125 322.1875 C-138.72884705 322.82309845 -139.14519409 323.4586969 -139.57415771 324.11355591 C-144.58980311 331.7714865 -149.58719507 339.44078409 -154.5625 347.125 C-160.06539014 355.62081487 -165.68173893 364.03948242 -171.30627441 372.45492554 C-177.17734602 381.24118765 -182.97402977 390.07020492 -188.68701172 398.95996094 C-197.33715398 412.4000109 -206.11529834 425.75689713 -214.88977051 439.11590576 C-220.1523205 447.12850117 -225.40847475 455.14482391 -230.625 463.1875 C-235.79614062 471.15654429 -240.98511277 479.11382723 -246.1875 487.0625 C-246.78946701 487.98237701 -246.78946701 487.98237701 -247.40359497 488.9208374 C-253.78180594 498.66262237 -260.23353121 508.3535035 -266.71176147 518.02896118 C-271.48327595 525.16045794 -276.16050287 532.33234426 -280.6628418 539.63647461 C-284.49410698 545.84307437 -288.546132 551.89287851 -292.62011719 557.94189453 C-294.16470989 560.24566602 -295.69638235 562.55772559 -297.2265625 564.87109375 C-297.77070801 565.6923877 -298.31485352 566.51368164 -298.87548828 567.35986328 C-299.94055183 568.96786274 -301.00408387 570.57687788 -302.06591797 572.18701172 C-302.54947754 572.91549316 -303.03303711 573.64397461 -303.53125 574.39453125 C-303.95986328 575.04268799 -304.38847656 575.69084473 -304.83007812 576.35864258 C-306 578 -306 578 -308 580 C-310.89797974 580.24050903 -310.89797974 580.24050903 -314.65283203 580.22705078 C-315.33587402 580.22734283 -316.01891602 580.22763489 -316.72265625 580.22793579 C-318.98450341 580.22654039 -321.24602276 580.21096967 -323.5078125 580.1953125 C-325.07436951 580.19158311 -326.64092884 580.18873579 -328.20748901 580.18673706 C-332.33394797 580.17909476 -336.46026651 580.15944124 -340.58666992 580.1373291 C-344.79604187 580.11688346 -349.00543648 580.1077381 -353.21484375 580.09765625 C-361.476627 580.07619583 -369.73829604 580.04205279 -378 580 C-378 575.73862004 -375.73850505 573.03480096 -373.5 569.5625 C-372.88511719 568.58893555 -372.88511719 568.58893555 -372.2578125 567.59570312 C-368.98991345 562.4512378 -365.60017449 557.38913361 -362.21337891 552.32250977 C-358.08937509 546.13195518 -354.01622719 539.90793906 -349.9375 533.6875 C-349.47879517 532.98824402 -349.02009033 532.28898804 -348.54748535 531.56854248 C-342.77017458 522.7615077 -337.00139757 513.94898681 -331.25 505.125 C-330.65799805 504.2167749 -330.06599609 503.3085498 -329.45605469 502.37280273 C-326.97139196 498.56035191 -324.487007 494.7477207 -322.00341797 490.93457031 C-313.54456903 477.95196328 -305.022418 465.01711109 -296.40194702 452.14160156 C-291.58900617 444.94790221 -286.86896202 437.71100697 -282.32446289 430.34448242 C-278.57290799 424.27126525 -274.61236016 418.34532656 -270.62890625 412.42285156 C-267.07808251 407.14132057 -263.5361654 401.85385358 -260 396.5625 C-259.60506348 395.97161591 -259.21012695 395.38073181 -258.80322266 394.77194214 C-253.85845978 387.36709887 -248.99772542 379.92245816 -244.32397461 372.34277344 C-241.44115995 367.67447756 -238.43478189 363.09803383 -235.37426758 358.54467773 C-230.75950236 351.66844145 -226.22392522 344.74052682 -221.6875 337.8125 C-221.27381165 337.18088959 -220.86012329 336.54927917 -220.43389893 335.89852905 C-214.72063208 327.17429898 -209.03019682 318.43554811 -203.35571289 309.68603516 C-200.31104977 304.9978101 -197.23612795 300.33185104 -194.125 295.6875 C-189.41148732 288.65085776 -184.78588787 281.55819666 -180.16503906 274.46044922 C-174.50763068 265.77198523 -168.82611249 257.09950598 -163.14019775 248.4296875 C-158.21870926 240.92469238 -153.31434885 233.40910624 -148.4375 225.875 C-142.93472448 217.37911273 -137.31825982 208.96051572 -131.69372559 200.54507446 C-125.82265398 191.75881235 -120.02597023 182.92979508 -114.31298828 174.04003906 C-105.66219197 160.59897288 -96.88348229 147.24100613 -88.10821533 133.881073 C-82.88746303 125.93231968 -77.67321639 117.97981519 -72.5 110 C-66.49466816 100.73797631 -60.43626531 91.51106024 -54.37701416 82.28427124 C-48.36730805 73.13289098 -42.36401919 63.97743892 -36.375 54.8125 C-30.64578772 46.04638733 -24.91515088 37.28121642 -19.17828369 28.52011108 C-18.36848965 27.28327208 -17.55887059 26.04631849 -16.74945068 24.80923462 C-1.49324413 1.49324413 -1.49324413 1.49324413 0 0 Z " fill="#0128B2" transform="translate(738,278)"/>
<path d="M0 0 C3.61252056 0.65835655 6.15817084 2.17359963 9.25 4.125 C9.78866699 4.46265381 10.32733398 4.80030762 10.88232422 5.14819336 C12.15627136 5.94711227 13.42876901 6.74834493 14.70019531 7.55126953 C17.3964263 9.24972332 20.10025551 10.93572941 22.8046875 12.62109375 C32.56345307 18.70556146 42.30693694 24.81124221 52 31 C49.22979956 36.76097891 46.14705555 42.12960636 42.6875 47.5 C41.61397126 49.18320353 40.541085 50.86681696 39.46875 52.55078125 C38.90414063 53.43588379 38.33953125 54.32098633 37.7578125 55.23291016 C34.70764554 60.03438132 31.69868439 64.86152179 28.6875 69.6875 C28.06020996 70.69192139 27.43291992 71.69634277 26.78662109 72.73120117 C24.85729915 75.82052118 22.92856674 78.9102085 21 82 C13.54554664 93.94291393 6.08702029 105.88256977 -1.44213867 117.77856445 C-5.48478815 124.17116825 -9.49488694 130.58382608 -13.5 137 C-18.0458001 144.28145833 -22.6012259 151.55645663 -27.1875 158.8125 C-27.67379883 159.58198975 -28.16009766 160.35147949 -28.66113281 161.14428711 C-31.05289144 164.92670539 -33.44839586 168.70671116 -35.84765625 172.484375 C-41.58240475 181.52539147 -47.22464039 190.61739227 -52.8125 199.75 C-57.99427766 208.21493119 -63.29047508 216.58656359 -68.75 224.875 C-73.87057607 232.64943606 -78.775368 240.51288247 -83.51928711 248.52197266 C-87.73093794 255.61180714 -92.13540622 262.56727201 -96.58056641 269.51245117 C-100.90738057 276.27465036 -105.18764633 283.06417399 -109.4375 289.875 C-110.05987549 290.87241211 -110.68225098 291.86982422 -111.32348633 292.89746094 C-112.58551906 294.92075337 -113.84731879 296.94419116 -115.10888672 298.96777344 C-118.23543421 303.98090536 -121.36796466 308.99029558 -124.5 314 C-128.28669989 320.05763112 -132.07260999 326.1157505 -135.85546875 332.17578125 C-141.59008666 341.36034647 -147.33182896 350.53973017 -153.125 359.6875 C-157.29123015 366.26652932 -161.40887246 372.8740205 -165.5 379.5 C-170.07285018 386.90617624 -174.68951628 394.28242723 -179.34643555 401.63598633 C-183.35721886 407.97275001 -187.33967265 414.32687789 -191.3125 420.6875 C-191.94051514 421.69296875 -192.56853027 422.6984375 -193.21557617 423.734375 C-195.14406154 426.82270201 -197.07211385 429.9112989 -199 433 C-206.45445336 444.94291393 -213.91297971 456.88256977 -221.44213867 468.77856445 C-225.48478906 475.1711697 -229.49466127 481.58396574 -233.5 488 C-235.99925589 492.00046541 -238.49939561 496.00037739 -241 500 C-241.56847656 500.90975586 -242.13695312 501.81951172 -242.72265625 502.75683594 C-244.31220884 505.29805328 -245.90549321 507.83688907 -247.5 510.375 C-247.95568359 511.10460937 -248.41136719 511.83421875 -248.88085938 512.5859375 C-249.74406684 513.9569882 -250.62464644 515.31732535 -251.52586365 516.66369629 C-253.05285009 518.98705508 -253.05285009 518.98705508 -254.24049377 521.56433105 C-255.89603987 524.60042402 -257.39587956 526.70628129 -260 529 C-265.31743564 530.461641 -270.53480401 530.30772752 -275.99609375 530.1953125 C-277.55552296 530.19910354 -279.11494712 530.20729902 -280.67433167 530.21969604 C-284.76056637 530.24043595 -288.84411482 530.2016896 -292.92999268 530.15020752 C-297.10635354 530.10822332 -301.28248102 530.12296147 -305.45898438 530.1328125 C-313.64014855 530.14380623 -321.81934753 530.09190938 -330 530 C-329.28838387 526.01377759 -328.22813061 523.35987969 -326.04296875 519.9296875 C-325.12547852 518.4765918 -325.12547852 518.4765918 -324.18945312 516.99414062 C-323.52880859 515.96482422 -322.86816406 514.93550781 -322.1875 513.875 C-321.50751953 512.80185547 -320.82753906 511.72871094 -320.12695312 510.62304688 C-318.74067341 508.43644073 -317.35119882 506.25185673 -315.95849609 504.06933594 C-313.76748233 500.63560058 -311.59109707 497.19287187 -309.41796875 493.74780273 C-308.46447959 492.23630571 -307.5100362 490.72541027 -306.5546875 489.21508789 C-300.63858924 479.86133639 -294.78396985 470.46912683 -288.92333984 461.08056641 C-285.16209095 455.05626601 -281.39684818 449.03446118 -277.63232422 443.01220703 C-274.46837635 437.95038597 -271.30545562 432.88792852 -268.14453125 427.82421875 C-261.97368642 417.94083313 -255.78916113 408.06682593 -249.55786133 398.22143555 C-244.86974047 390.80815389 -240.22581051 383.36747213 -235.58178711 375.92651367 C-231.59527248 369.54245018 -227.58859559 363.17166637 -223.5625 356.8125 C-220.34323285 351.72723466 -217.14396887 346.63235164 -214 341.5 C-208.24267032 332.10270569 -202.31431694 322.81235972 -196.41796875 313.50195312 C-189.15232216 302.0363585 -189.15232216 302.0363585 -182 290.5 C-176.26916285 281.14594762 -170.37074624 271.89654008 -164.49853516 262.63085938 C-158.2256866 252.73181147 -152.00823604 242.80143308 -145.85131836 232.82983398 C-141.82739638 226.31933305 -137.75575637 219.84058738 -133.66015625 213.375 C-129.58157012 206.93232478 -125.53718104 200.46868831 -121.5 194 C-116.97966196 186.75715964 -112.443689 179.52493703 -107.875 172.3125 C-103.70868729 165.73352363 -99.59112687 159.12597843 -95.5 152.5 C-90.92714982 145.09382376 -86.31048372 137.71757277 -81.65356445 130.36401367 C-77.64278095 124.02724969 -73.66037395 117.67309322 -69.6875 111.3125 C-68.743302 109.80103394 -68.743302 109.80103394 -67.7800293 108.2590332 C-64.58564458 103.14403838 -61.39359908 98.02759108 -58.203125 92.91015625 C-51.98324399 82.93839668 -45.74179246 72.98116359 -39.4375 63.0625 C-38.87796631 62.18126465 -38.31843262 61.3000293 -37.74194336 60.39208984 C-35.1800714 56.3704255 -32.58760195 52.37934812 -29.91015625 48.43359375 C-27.49945251 44.8415507 -25.39143731 41.15588707 -23.32666016 37.35742188 C-20.80246786 32.87203343 -17.97368589 28.57558194 -15.1875 24.25 C-13.94847187 22.31558236 -12.71018779 20.38068792 -11.47265625 18.4453125 C-10.87855957 17.5162207 -10.28446289 16.58712891 -9.67236328 15.62988281 C-6.38425865 10.45915828 -3.18160484 5.23680299 0 0 Z " fill="#01229A" transform="translate(521,329)"/>
<path d="M0 0 C3.47554795 0.5521758 5.96184249 1.3459429 8.90625 3.265625 C9.64004883 3.73734131 10.37384766 4.20905762 11.12988281 4.69506836 C11.91202148 5.2081958 12.69416016 5.72132324 13.5 6.25 C15.19199019 7.34095834 16.88472733 8.43075889 18.578125 9.51953125 C19.46048828 10.08881348 20.34285156 10.6580957 21.25195312 11.24462891 C26.74713564 14.75478903 32.31771666 18.14482343 37.88085938 21.54589844 C42.72912978 24.52843365 47.41030776 27.63215827 52 31 C47.21524873 39.62662509 42.14821371 48.01789427 36.84667969 56.33520508 C32.8146389 62.67421892 28.89078896 69.07346046 25 75.5 C20.30343924 83.25124483 15.53441715 90.94812867 10.6730957 98.59692383 C6.44941121 105.25609792 2.31233595 111.96673435 -1.8125 118.6875 C-7.005291 127.14815746 -12.22812055 135.58838941 -17.5 144 C-24.10778417 154.5459503 -30.63744692 165.1386697 -37.15234375 175.7421875 C-42.22488194 183.99722226 -47.32787021 192.2333074 -52.43212891 200.46875 C-54.01230697 203.019869 -55.59043858 205.5722429 -57.16796875 208.125 C-62.85709423 217.32876395 -68.56990029 226.51699619 -74.3125 235.6875 C-80.97814185 246.33492221 -87.56922093 257.02709239 -94.14453125 267.73046875 C-98.21790959 274.35973212 -102.31569422 280.97371538 -106.41625977 287.58618164 C-109.82277157 293.08443914 -113.1998918 298.59980873 -116.5625 304.125 C-120.80935917 311.10005569 -125.15184193 318.01046101 -129.52636719 324.90600586 C-132.83888314 330.13660293 -136.09635227 335.39716573 -139.3125 340.6875 C-143.55092754 347.6588311 -147.854968 354.58677859 -152.1875 361.5 C-158.89276454 372.20235343 -165.52173937 382.95021445 -172.1328125 393.7109375 C-176.27813425 400.45716438 -180.44489972 407.18998851 -184.61621094 413.92016602 C-188.10116582 419.54391577 -191.57153052 425.17619919 -195.0234375 430.8203125 C-195.67570312 431.86960937 -196.32796875 432.91890625 -197 434 C-197.38972992 434.877771 -197.77945984 435.75554199 -198.18099976 436.65991211 C-199.83617741 439.9526857 -201.38804827 442.3859591 -204 445 C-209.11194702 446.68827122 -214.13216176 446.63627021 -219.453125 446.6171875 C-220.96060727 446.64921276 -222.46800279 446.68558884 -223.97528076 446.72610474 C-227.1226844 446.79988136 -230.26777347 446.83870262 -233.41601562 446.84912109 C-237.45179419 446.86280585 -241.48343863 446.93711163 -245.51799393 447.03402519 C-249.37107467 447.12407978 -253.22444847 447.18435208 -257.078125 447.2421875 C-257.81248024 447.25566097 -258.54683548 447.26913445 -259.30344391 447.2830162 C-261.37866968 447.31564113 -263.45286618 447.32708996 -265.52832031 447.33154297 C-266.70855774 447.34055634 -267.88879517 447.3495697 -269.10479736 447.3588562 C-272 447 -272 447 -273.90447998 445.47927856 C-274.26600159 444.99111664 -274.62752319 444.50295471 -275 444 C-263.84478984 425.27616075 -252.36304716 406.76637742 -240.79760742 388.29394531 C-235.4853811 379.79926988 -230.23424317 371.26783649 -224.9921875 362.72973633 C-220.42525399 355.29789777 -215.8190641 347.89171158 -211.1875 340.5 C-206.43049571 332.90734927 -201.71312253 325.2932572 -197.05249023 317.64111328 C-189.02846607 304.47113511 -180.87154279 291.38346338 -172.6875 278.3125 C-166.74061323 268.81438446 -160.85545686 259.27965037 -154.9921875 249.72973633 C-150.42525401 242.2978978 -145.81906951 234.89170822 -141.1875 227.5 C-135.44510962 218.33470628 -129.77374977 209.12912948 -124.15087891 199.89013672 C-118.12539868 189.99423772 -111.98662468 180.17053655 -105.84082031 170.34912109 C-101.17551597 162.89039377 -96.5367263 155.4157591 -91.91308594 147.93115234 C-88.44925095 142.32850993 -84.96263546 136.74061799 -81.46435547 131.15942383 C-75.28256325 121.2963307 -69.17248597 111.39404354 -63.13354492 101.44287109 C-54.68288943 87.5228797 -46.09020938 73.69488244 -37.37182617 59.94116211 C-34.09448156 54.76087797 -30.87252312 49.54998914 -27.6875 44.3125 C-23.25916085 37.03048748 -18.76791815 29.78927473 -14.25 22.5625 C-13.63600342 21.57999268 -13.02200684 20.59748535 -12.3894043 19.58520508 C-8.29069372 13.03688098 -4.15630165 6.51191025 0 0 Z " fill="#011E86" transform="translate(299,414)"/>
<path d="M0 0 C0.92256592 0.4024292 0.92256592 0.4024292 1.86376953 0.81298828 C28.81577647 12.84526282 48.44829803 35.32705994 59.05224609 62.58935547 C69.40994782 90.25579878 67.24687108 121.25063537 55.12109375 147.93408203 C42.04082899 175.67302013 18.70985238 194.50008473 -9.6640625 205.19921875 C-38.54937735 215.10137518 -70.95255852 213.01830605 -98.48828125 199.92578125 C-116.37987383 191.00271762 -132.42481417 178.15112625 -143 161 C-143.85464844 159.68708984 -143.85464844 159.68708984 -144.7265625 158.34765625 C-148.36278782 152.50887153 -151.21003325 146.49928755 -153.75 140.125 C-154.17249023 139.08375977 -154.17249023 139.08375977 -154.60351562 138.02148438 C-158.9972676 126.53900607 -160.52143365 114.9394519 -160.44604492 102.72363281 C-160.43753038 100.6324601 -160.46644813 98.54403114 -160.49804688 96.453125 C-160.54993642 86.45498291 -158.85724633 77.56034756 -156 68 C-155.75386963 67.17048828 -155.50773926 66.34097656 -155.25415039 65.48632812 C-150.52040863 50.55475413 -142.43074876 37.62231057 -132 26 C-131.33871094 25.24460937 -130.67742187 24.48921875 -129.99609375 23.7109375 C-97.74239964 -10.92965238 -42.30590511 -18.47159237 0 0 Z M-94.25 50.75 C-107.95465705 65.10622553 -114.59531173 83.24545427 -114.48754883 102.96606445 C-113.88908836 119.97995403 -107.59859412 138.10919207 -95 150 C-80.4263833 163.40867834 -63.52172524 169.88369739 -43.82421875 169.32421875 C-26.79329379 167.88033032 -9.12241286 160.69810235 2.1484375 147.48046875 C14.10783602 132.32262644 20.1949644 114.33669667 19 95 C16.53546441 75.55539633 9.10020211 58.99061505 -6 46 C-13.64769403 40.09146531 -21.88191762 36.90338939 -31 34 C-31.99 33.67 -32.98 33.34 -34 33 C-56.65521387 30.51069237 -77.26725496 34.58693496 -94.25 50.75 Z " fill="#002493" transform="translate(2090,618)"/>
<path d="M0 0 C28.1840625 -0.12375 28.1840625 -0.12375 56.9375 -0.25 C62.83874756 -0.28641602 68.73999512 -0.32283203 74.82006836 -0.36035156 C82.10656738 -0.37841797 82.10656738 -0.37841797 85.53321838 -0.3817749 C87.89250214 -0.38785945 90.2517746 -0.40180573 92.61097717 -0.42230225 C117.37927598 -0.62645999 139.31051979 2.46266395 159 19 C159 19.66 159 20.32 159 21 C159.66 21 160.32 21 161 21 C174.76520591 36.94425394 178.78785402 53.12186858 178 74 C176.65825366 87.93499409 169.35276535 102.64933465 159.16015625 112.23828125 C143.51219512 125 143.51219512 125 137 125 C137.40726318 125.72364746 137.40726318 125.72364746 137.82275391 126.46191406 C142.5480979 134.87274642 147.20291728 143.27622174 151.44140625 151.9453125 C153.35404899 155.69390053 155.41813506 159.34345696 157.5 163 C160.0559093 167.49118762 162.54338008 171.97966306 164.8125 176.625 C168.23629402 183.6273358 172.01870059 190.43239557 175.7746582 197.26025391 C183 210.40970212 183 210.40970212 183 213 C166.5 213 150 213 133 213 C129.04764301 205.75401219 125.12761312 198.50482285 121.3125 191.1875 C120.5393042 189.70588379 120.5393042 189.70588379 119.75048828 188.19433594 C115.75629682 180.51348012 111.86949317 172.78274147 108.02490234 165.02612305 C104.53351964 158.00332177 100.90745352 151.05888836 97.17138672 144.16308594 C96.78354004 143.43895508 96.39569336 142.71482422 95.99609375 141.96875 C95.48840454 141.03192383 95.48840454 141.03192383 94.97045898 140.07617188 C93.75584249 137.47765649 92.90705983 134.7211795 92 132 C76.49 132 60.98 132 45 132 C45 158.73 45 185.46 45 213 C30.15 213 15.3 213 0 213 C0 142.71 0 72.42 0 0 Z M45 39 C45 57.48 45 75.96 45 95 C52.62641566 95.0631442 60.25186859 95.12322128 67.87831879 95.15525055 C71.43079468 95.17100474 74.98305113 95.19200958 78.53540039 95.22631836 C82.62388064 95.26555202 86.71213335 95.27978254 90.80078125 95.29296875 C92.68426018 95.31619453 92.68426018 95.31619453 94.60578918 95.33988953 C106.0554094 95.34205078 116.10717881 93.65820416 125 86 C130.99651826 79.49033226 132.47855946 72.75899917 132.31640625 64.03515625 C131.67437004 57.8763645 128.8921462 52.04808856 124.75 47.4140625 C117.4217804 41.49259934 109.10172878 38.86728421 99.83276367 38.88647461 C98.61187546 38.88655014 97.39098724 38.88662567 96.13310242 38.88670349 C94.82460831 38.89186478 93.5161142 38.89702606 92.16796875 38.90234375 C90.80748039 38.90421039 89.44699135 38.90563313 88.08650208 38.90663147 C84.51744713 38.91043725 80.94843331 38.92025086 77.37939453 38.93133545 C73.73275316 38.94159137 70.08610489 38.94619293 66.43945312 38.95117188 C59.29293251 38.96134341 52.14652462 38.98091999 45 39 Z " fill="#002493" transform="translate(1287,612)"/>
<path d="M0 0 C127.72162741 0 127.72162741 0 159 27 C159.91394531 27.69480469 160.82789063 28.38960937 161.76953125 29.10546875 C162.50558594 29.73066406 163.24164062 30.35585938 164 31 C164 31.66 164 32.32 164 33 C164.99 33.33 165.98 33.66 167 34 C187.50653847 55.66560369 196.13982184 84.34019699 195.40625 113.6015625 C194.00927825 142.52760882 180.2028133 167.04069284 159.3125 186.50390625 C114.53687527 224.81638276 56.10722271 213 0 213 C0 142.71 0 72.42 0 0 Z M45 40 C45 83.89 45 127.78 45 173 C93.20598142 174.61225882 93.20598142 174.61225882 130.9375 152.5 C144.52881999 138.11357537 148.74154329 121.35234373 148.3125 102.05078125 C147.51542144 84.42538167 139.27576017 68.87585749 126.69140625 56.78125 C102.94159226 36.50226268 75.27630134 40 45 40 Z " fill="#002493" transform="translate(1714,612)"/>
<path d="M0 0 C0.98395752 0.1853833 0.98395752 0.1853833 1.98779297 0.37451172 C22.75454937 4.41426037 41.66180471 12.95280328 59 25 C59.99 25.66 60.98 26.32 62 27 C60.35185379 32.23651516 57.09823459 36.26768118 53.875 40.625 C52.69774779 42.22904274 51.52066421 43.83320925 50.34375 45.4375 C49.77140625 46.21480469 49.1990625 46.99210938 48.609375 47.79296875 C47.20356309 49.72084188 45.82703991 51.66352214 44.46875 53.625 C43.7778125 54.615 43.086875 55.605 42.375 56.625 C41.78460937 57.48351562 41.19421875 58.34203125 40.5859375 59.2265625 C40.06257813 59.81179688 39.53921875 60.39703125 39 61 C34.86589342 61 32.6160531 58.81264821 29.375 56.5 C9.06523234 42.51990226 -15.93591654 33.60883778 -40.77416992 37.87402344 C-50.15203055 39.65851687 -58.97829325 42.45281828 -64.8125 50.5 C-66.97304757 56.86792968 -67.25884103 63.38907045 -64.3125 69.5 C-55.94016 78.55117838 -44.581079 80.37694545 -32.76171875 82.21875 C-31.07596489 82.49567688 -31.07596489 82.49567688 -29.3561554 82.77819824 C-25.8013784 83.36145961 -22.2447484 83.93202173 -18.6875 84.5 C41.17976856 94.1020108 41.17976856 94.1020108 58.3125 117.0625 C66.77690417 131.09749494 68.39964724 148.19811632 65.30078125 164.12890625 C60.70086934 181.81042419 49.93427412 194.96929821 34.38671875 204.10546875 C5.61673256 220.19940566 -29.90909361 221.34268488 -61.3125 212.8125 C-82.42633882 206.73254911 -101.8347101 195.82204232 -118 181 C-117.44274228 176.90703812 -115.28367665 174.68625229 -112.625 171.625 C-111.71956412 170.5679369 -110.81599332 169.50927409 -109.9140625 168.44921875 C-109.2029834 167.61463135 -109.2029834 167.61463135 -108.47753906 166.76318359 C-105.91740004 163.70810692 -103.45794455 160.57496979 -101 157.4375 C-100.53158691 156.84211426 -100.06317383 156.24672852 -99.58056641 155.63330078 C-97.62607188 153.13656851 -95.75981139 150.63971709 -94 148 C-90.06344697 148.57275483 -88.00831045 150.47993234 -85.0625 153.0625 C-64.90064819 169.95341308 -40.43331137 179.67664215 -14 178 C-4.50329989 176.97696781 6.6389778 175.42499621 13.63671875 168.34375 C15 167 15 167 17 167 C17.28875 166.278125 17.5775 165.55625 17.875 164.8125 C19 162 19 162 20.125 159.75 C21.87723335 154.2429809 21.7754808 149.04105976 19.375 143.75 C15.13889751 136.33682065 8.83387767 133.52550061 1 131 C-11.96090068 127.76793661 -25.25363833 125.80063713 -38.41137695 123.55493164 C-70.26972581 118.10364339 -70.26972581 118.10364339 -81.375 112.25 C-82.04072021 111.90565918 -82.70644043 111.56131836 -83.39233398 111.20654297 C-95.47825638 104.72515208 -103.93157304 94.86489545 -108.22265625 81.7890625 C-113.03792486 64.5121691 -111.69280785 47.07223106 -103.0625 31.25 C-91.58432729 13.1631824 -72.72606758 4.12677753 -52.390625 -0.45703125 C-35.29877384 -3.19409036 -17.00957181 -3.23903707 0 0 Z " fill="#002493" transform="translate(998,611)"/>
<path d="M0 0 C17.49 0 34.98 0 53 0 C59.5625 16.1875 59.5625 16.1875 62.76423645 24.08532715 C65.75523456 31.46327679 68.74650326 38.84111656 71.73828125 46.21875 C77.93168611 61.49199832 84.12163038 76.76664053 90.30502319 92.04394531 C91.37685698 94.69208798 92.44880092 97.34018604 93.52075195 99.98828125 C96.75668672 107.98273315 99.99152673 115.97762251 103.22206116 123.97425842 C105.00156292 128.37893287 106.78193641 132.78325471 108.5625 137.1875 C108.91089935 138.04949005 109.25929871 138.9114801 109.61825562 139.79959106 C113.52373384 149.45937837 117.44831724 159.11087592 121.4140625 168.74609375 C121.77497482 169.62337631 122.13588715 170.50065887 122.50773621 171.40452576 C124.21759879 175.55926498 125.93047224 179.71271943 127.64868164 183.86401367 C128.26975801 185.37025356 128.89077347 186.87651856 129.51171875 188.3828125 C129.77671173 189.01984604 130.04170471 189.65687958 130.31472778 190.31321716 C133.39992314 197.81138906 136.14814722 205.39505927 139 213 C122.5 213 106 213 89 213 C87.65164063 209.44863281 86.30328125 205.89726563 84.9140625 202.23828125 C83.60687644 198.79626522 82.29953929 195.35430661 80.9921875 191.91235352 C80.08415178 189.52146304 79.17627298 187.13051296 78.26855469 184.73950195 C76.96330418 181.30143783 75.6574883 177.86358891 74.3515625 174.42578125 C73.94628326 173.35789871 73.54100403 172.29001617 73.1234436 171.18977356 C72.74320038 170.18911362 72.36295715 169.18845367 71.97119141 168.1574707 C71.63809967 167.28032913 71.30500793 166.40318756 70.96182251 165.49946594 C69.99656061 162.99106213 68.99819287 160.49548216 68 158 C39.62 157.67 11.24 157.34 -18 157 C-18.99 159.97 -19.98 162.94 -21 166 C-21.71758697 167.96016583 -22.44904018 169.91535588 -23.19921875 171.86328125 C-23.80068726 173.42767944 -23.80068726 173.42767944 -24.41430664 175.02368164 C-24.83446045 176.1089917 -25.25461426 177.19430176 -25.6875 178.3125 C-26.12376709 179.44228271 -26.56003418 180.57206543 -27.00952148 181.73608398 C-29.8303647 189.02347611 -32.67545799 196.30107081 -35.5625 203.5625 C-35.89660889 204.40659424 -36.23071777 205.25068848 -36.57495117 206.12036133 C-38.88023254 211.88023254 -38.88023254 211.88023254 -40 213 C-41.47354348 213.09304018 -42.95150591 213.11746265 -44.42797852 213.11352539 C-45.36887833 213.11344986 -46.30977814 213.11337433 -47.27919006 213.11329651 C-48.30209641 213.10813522 -49.32500275 213.10297394 -50.37890625 213.09765625 C-51.941605 213.09553383 -51.941605 213.09553383 -53.53587341 213.09336853 C-56.87811094 213.0877508 -60.22028257 213.0751953 -63.5625 213.0625 C-65.82226466 213.05748728 -68.08203037 213.05292398 -70.34179688 213.04882812 C-75.89455391 213.03777561 -81.44727225 213.02102024 -87 213 C-85.27748076 207.68548354 -83.45450785 202.46438578 -81.3125 197.30078125 C-81.05781448 196.68430725 -80.80312897 196.06783325 -80.54072571 195.43267822 C-79.6966504 193.39143283 -78.84829181 191.35199629 -78 189.3125 C-77.39055717 187.84054254 -76.78143577 186.36845196 -76.17260742 184.89624023 C-74.84237251 181.68083242 -73.51042115 178.46614299 -72.17724609 175.25195312 C-68.62727816 166.69156308 -65.08973539 158.12603183 -61.55126953 149.56088257 C-60.72213901 147.55401169 -59.89287363 145.54719653 -59.06347656 143.54043579 C-54.10305278 131.53817318 -49.16318284 119.5285173 -44.28051758 107.49438477 C-39.32086867 95.29147358 -34.27378981 83.12459853 -29.23953247 70.95233154 C-24.06503708 58.43977988 -18.89899997 45.92449992 -13.82421875 33.37109375 C-9.30256353 22.21024758 -4.63248098 11.11795436 0 0 Z M25 46 C24.79892136 46.51411438 24.59784271 47.02822876 24.39067078 47.55792236 C22.23838037 53.06073691 20.08578579 58.56343241 17.93304443 64.06607056 C17.10520833 66.18223091 16.27744907 68.29842132 15.44976807 70.41464233 C7.29999313 91.25182012 7.29999313 91.25182012 3.35546875 101.25390625 C3.0928978 101.92011993 2.83032684 102.58633362 2.55979919 103.2727356 C1.37493093 106.27870434 0.18831648 109.28396118 -1.0012207 112.28808594 C-1.4055835 113.31321289 -1.80994629 114.33833984 -2.2265625 115.39453125 C-2.57283691 116.26956299 -2.91911133 117.14459473 -3.27587891 118.04614258 C-4.0579188 119.8089917 -4.0579188 119.8089917 -4 121 C15.14 121 34.28 121 54 121 C51.92611285 113.39574713 49.74907226 106.53961019 46.6875 99.375 C43.91970448 92.76332311 41.25626059 86.15792409 38.9375 79.375 C35.8857932 70.4586149 32.36851731 61.74145888 28.81835938 53.01367188 C27.86971943 50.67942897 26.93248923 48.34073827 26 46 C25.67 46 25.34 46 25 46 Z " fill="#002493" transform="translate(1559,612)"/>
<path d="M0 0 C62.37 0 124.74 0 189 0 C189 13.2 189 26.4 189 40 C165.24 40 141.48 40 117 40 C117 97.09 117 154.18 117 213 C102.15 213 87.3 213 72 213 C72 155.91 72 98.82 72 40 C48.24 40 24.48 40 0 40 C0 26.8 0 13.6 0 0 Z " fill="#002494" transform="translate(1075,612)"/>
<path d="M0 0 C0.495 1.485 0.495 1.485 1 3 C-0.35326084 5.37200776 -1.74274002 7.52756373 -3.3125 9.75 C-4.25541029 11.1235593 -5.19811353 12.49726075 -6.140625 13.87109375 C-6.62337891 14.56702637 -7.10613281 15.26295898 -7.60351562 15.97998047 C-9.62354642 18.90196208 -11.59394402 21.85572349 -13.5625 24.8125 C-13.92547684 25.35642395 -14.28845367 25.9003479 -14.66242981 26.46075439 C-19.09594773 33.11749984 -23.46583598 39.81581635 -27.83984375 46.51171875 C-28.6340462 47.72702819 -29.42827614 48.94231967 -30.22253418 50.15759277 C-32.14867282 53.10485499 -34.07444041 56.05235943 -36 59 C-27.29022309 59.32547991 -18.58255923 59.57364935 -9.86801243 59.72537041 C-5.82037611 59.7982246 -1.77691911 59.89684855 2.26831055 60.05615234 C6.17852683 60.20916176 10.08474848 60.29213886 13.99772835 60.3282814 C15.48416156 60.3540029 16.97039342 60.40424929 18.45510674 60.48022079 C26.50287078 61.02886063 26.50287078 61.02886063 33.48203468 57.65989304 C36.21793463 54.32445899 38.20007624 50.65900628 40.08586121 46.79532623 C41.52535044 43.96823609 43.26737334 41.38564456 45.01953125 38.7421875 C45.64923828 37.76765625 46.27894531 36.793125 46.92773438 35.7890625 C47.54970703 34.82742188 48.17167969 33.86578125 48.8125 32.875 C49.45380859 31.8746875 50.09511719 30.874375 50.75585938 29.84375 C51.37912109 28.88210938 52.00238281 27.92046875 52.64453125 26.9296875 C53.46981323 25.64940674 53.46981323 25.64940674 54.31176758 24.34326172 C56.02203692 21.96941283 57.87671139 20.00659895 60 18 C58.75031051 21.3401654 57.33904153 24.25136812 55.3828125 27.23046875 C54.60417847 28.422771 54.60417847 28.422771 53.80981445 29.63916016 C53.25382568 30.4801123 52.69783691 31.32106445 52.125 32.1875 C51.55289795 33.05938965 50.9807959 33.9312793 50.39135742 34.82958984 C48.59929872 37.55643243 46.80018552 40.27851726 45 43 C44.1325415 44.31653564 44.1325415 44.31653564 43.24755859 45.65966797 C41.60601459 48.15043239 39.96038933 50.63843003 38.3125 53.125 C37.80799316 53.8883667 37.30348633 54.6517334 36.78369141 55.43823242 C36.31495605 56.14181885 35.8462207 56.84540527 35.36328125 57.5703125 C34.74900269 58.49481201 34.74900269 58.49481201 34.12231445 59.43798828 C33 61 33 61 31 63 C28.10202026 63.24050903 28.10202026 63.24050903 24.34716797 63.22705078 C23.66412598 63.22734283 22.98108398 63.22763489 22.27734375 63.22793579 C20.01549659 63.22654039 17.75397724 63.21096967 15.4921875 63.1953125 C13.92563049 63.19158311 12.35907116 63.18873579 10.79251099 63.18673706 C6.66605203 63.17909476 2.53973349 63.15944124 -1.58666992 63.1373291 C-5.79604187 63.11688346 -10.00543648 63.1077381 -14.21484375 63.09765625 C-22.476627 63.07619583 -30.73829604 63.04205279 -39 63 C-39 58.73862004 -36.73850505 56.03480096 -34.5 52.5625 C-34.09007812 51.91345703 -33.68015625 51.26441406 -33.2578125 50.59570312 C-30.01145642 45.48515167 -26.64396906 40.45666564 -23.27929688 35.42358398 C-18.81162537 28.72639248 -14.41348764 21.98295166 -10 15.25 C-9.02478091 13.76299373 -8.04952075 12.27601439 -7.07421875 10.7890625 C-4.71567353 7.19301782 -2.35767967 3.59661221 0 0 Z " fill="#330681" transform="translate(399,795)"/>
<path d="M0 0 C0.33 0.66 0.66 1.32 1 2 C35.155 1.505 35.155 1.505 70 1 C69.34 2.65 68.68 4.3 68 6 C59.18628941 6.33073533 50.37219009 6.64487004 41.5571394 6.93773937 C37.46409909 7.07424956 33.37142571 7.21650222 29.27905273 7.37182617 C25.33074839 7.5214715 21.38219304 7.65610056 17.43300819 7.78026772 C15.92531883 7.83032415 14.41779999 7.88581822 12.91051292 7.94679832 C10.80145437 8.03120055 8.69262084 8.09636143 6.58276367 8.15698242 C5.38141281 8.19917404 4.18006195 8.24136566 2.94230652 8.28483582 C0 8 0 8 -1.91142273 6.4901886 C-2.27065323 5.99842636 -2.62988373 5.50666412 -3 5 C-2.01 3.35 -1.02 1.7 0 0 Z " fill="#3C0174" transform="translate(27,853)"/>
<path d="M0 0 C0.33 0.66 0.66 1.32 1 2 C0.67 2.66 0.34 3.32 0 4 C8.83155316 4.02314123 17.66309594 4.0409242 26.49467278 4.05181217 C30.59525496 4.05703709 34.69581645 4.06412768 38.79638672 4.07543945 C42.75154957 4.08628218 46.70669248 4.09227979 50.66186905 4.09487724 C52.17298827 4.09672898 53.68410637 4.10034482 55.19521713 4.10573006 C57.30708958 4.11295886 59.41887895 4.11399016 61.53076172 4.11352539 C62.73433319 4.115746 63.93790466 4.11796661 65.177948 4.12025452 C67.95127165 4.1946679 67.95127165 4.1946679 70 3 C68.25 7.875 68.25 7.875 66 9 C64.10734474 9.09629849 62.21126509 9.12796142 60.31616211 9.12939453 C59.12409653 9.13254669 57.93203094 9.13569885 56.70384216 9.13894653 C54.76022545 9.13591019 54.76022545 9.13591019 52.77734375 9.1328125 C51.43412763 9.13348638 50.09091163 9.13445712 48.74769592 9.13571167 C45.92561691 9.1371882 43.10356949 9.13503789 40.28149414 9.13037109 C36.68623513 9.12471213 33.09105141 9.12792854 29.49579525 9.13394356 C26.71689808 9.13758327 23.93801829 9.13639437 21.15912056 9.13381577 C19.1956744 9.13283416 17.23222753 9.1358453 15.26878357 9.13894653 C8.76000279 9.12204825 2.45122211 8.87735575 -4 8 C-2.87548273 5.0280615 -1.77706209 2.66559313 0 0 Z " fill="#2F0398" transform="translate(521,850)"/>
<path d="M0 0 C0.495 0.99 0.495 0.99 1 2 C0.11962891 3.77172852 0.11962891 3.77172852 -1.2734375 5.87890625 C-1.7684375 6.63494141 -2.2634375 7.39097656 -2.7734375 8.16992188 C-3.30195313 8.95947266 -3.83046875 9.74902344 -4.375 10.5625 C-5.15617187 11.75262695 -5.15617187 11.75262695 -5.953125 12.96679688 C-9.79634633 18.79634633 -9.79634633 18.79634633 -11 20 C-13.17731389 20.12401914 -15.35863454 20.1780151 -17.53930664 20.20532227 C-18.56365059 20.22017166 -18.56365059 20.22017166 -19.60868835 20.23532104 C-21.87580853 20.26701935 -24.14294969 20.29172613 -26.41015625 20.31640625 C-27.97815001 20.3369686 -29.54613813 20.35796488 -31.11412048 20.37937927 C-35.24870248 20.43467424 -39.38333511 20.48405062 -43.51800537 20.53222656 C-47.73405483 20.58238753 -51.95003043 20.63810174 -56.16601562 20.69335938 C-64.44394803 20.8010317 -72.72194208 20.90245635 -81 21 C-80.67 19.35 -80.34 17.7 -80 16 C-56.9 16.33 -33.8 16.66 -10 17 C-9.34 15.35 -8.68 13.7 -8 12 C-6.66803958 9.8683284 -5.29029027 7.76478087 -3.875 5.6875 C-3.15054688 4.61886719 -2.42609375 3.55023437 -1.6796875 2.44921875 C-1.12539063 1.64097656 -0.57109375 0.83273437 0 0 Z " fill="#330381" transform="translate(272,838)"/>
<path d="M0 0 C3.99455527 0.61454696 6.74466336 2.70646737 10 5 C9.01 5.495 9.01 5.495 8 6 C5.96855359 5.06553465 3.96466413 4.06775224 2 3 C0.35 4.32 -1.3 5.64 -3 7 C-1.125 2.25 -1.125 2.25 0 0 Z " fill="#1C15AD" transform="translate(521,329)"/>
<path d="M0 0 C4.40114397 0.50298788 6.71195019 2.08772731 10 5 C7.58686871 4.53078003 5.19380821 4.0498364 2.8125 3.4375 C0.98673164 2.92178649 0.98673164 2.92178649 -1 3 C-0.67 2.01 -0.34 1.02 0 0 Z " fill="#230E8C" transform="translate(299,414)"/>
<path d="M0 0 C3.465 1.98 3.465 1.98 7 4 C6.01 4.495 6.01 4.495 5 5 C4.360625 4.67 3.72125 4.34 3.0625 4 C0.8881755 2.64925728 0.8881755 2.64925728 -2 4 C-1.34 2.68 -0.68 1.36 0 0 Z " fill="#2314CB" transform="translate(738,278)"/>
</svg>
