<?xml version="1.0" encoding="utf-8"?>
<!-- Generator: Adobe Illustrator 27.5.0, SVG Export Plug-In . SVG Version: 6.00 Build 0)  -->
<svg version="1.1" xmlns="http://www.w3.org/2000/svg" xmlns:xlink="http://www.w3.org/1999/xlink" x="0px" y="0px"
	 viewBox="0 0 450 450" style="enable-background:new 0 0 450 450;" xml:space="preserve">
<g id="Layer_4">
	<g>
		
			<linearGradient id="SVGID_1_" gradientUnits="userSpaceOnUse" x1="262.3521" y1="62.4827" x2="404.1628" y2="62.4827" gradientTransform="matrix(0.9365 -0.3506 0.3506 0.9365 -40.7761 180.6755)">
			<stop  offset="0" style="stop-color:#0066FF"/>
			<stop  offset="1" style="stop-color:#002255"/>
		</linearGradient>
		<polygon style="fill:url(#SVGID_1_);" points="339.961,44.957 326.802,49.883 244.671,194.886 256.613,195.955 		"/>
		
			<linearGradient id="SVGID_00000058572702274266658540000010984228366443078801_" gradientUnits="userSpaceOnUse" x1="262.3521" y1="62.4827" x2="404.1628" y2="62.4827" gradientTransform="matrix(0.9365 -0.3506 0.3506 0.9365 -40.7761 180.6755)">
			<stop  offset="0" style="stop-color:#0066FF"/>
			<stop  offset="1" style="stop-color:#0040A1"/>
		</linearGradient>
		<polygon style="fill:url(#SVGID_00000058572702274266658540000010984228366443078801_);" points="339.961,44.957 326.802,49.883 
			244.671,194.886 256.613,195.955 		"/>
		<polygon style="fill:#D5E5FF;" points="338.747,45.411 255.694,195.873 256.613,195.955 339.961,44.957 		"/>
		
			<linearGradient id="SVGID_00000091006124107702832480000001037807444701198482_" gradientUnits="userSpaceOnUse" x1="374.546" y1="155.8162" x2="405.2423" y2="155.8162" gradientTransform="matrix(0.9365 -0.3506 0.3506 0.9365 -40.7761 180.6755)">
			<stop  offset="0" style="stop-color:#003380"/>
			<stop  offset="1" style="stop-color:#0044AA"/>
		</linearGradient>
		<polygon style="fill:url(#SVGID_00000091006124107702832480000001037807444701198482_);" points="358.798,179.744 368.718,176.03 
			399.18,200.057 387.135,201.796 		"/>
		<polygon style="fill:#D5E5FF;" points="399.18,200.057 368.718,176.03 367.504,176.485 397.665,200.276 		"/>
		
			<linearGradient id="SVGID_00000065057898367419482690000008397144952441527484_" gradientUnits="userSpaceOnUse" x1="239.5189" y1="279.9157" x2="277.8503" y2="-10.2972" gradientTransform="matrix(0.9365 -0.3506 0.3506 0.9365 -40.7761 180.6755)">
			<stop  offset="0" style="stop-color:#0055D4"/>
			<stop  offset="0.5764" style="stop-color:#80B3FF"/>
			<stop  offset="0.5813" style="stop-color:#5599FF"/>
			<stop  offset="1" style="stop-color:#AACCFF"/>
		</linearGradient>
		<path style="fill:url(#SVGID_00000065057898367419482690000008397144952441527484_);" d="M133.622,385.337
			C249.378,374.548,289.83,245.841,289.64,178.744c-9.49,4.245-33.027,17.211-33.027,17.211l83.349-150.998l59.218,155.101
			l-29.372-22.878C319.269,402.165,133.622,385.337,133.622,385.337z"/>
		
			<linearGradient id="SVGID_00000005948151644201106660000006215760981449614472_" gradientUnits="userSpaceOnUse" x1="91.5737" y1="186.1178" x2="310.1264" y2="186.1178" gradientTransform="matrix(0.9365 -0.3506 0.3506 0.9365 -40.7761 180.6755)">
			<stop  offset="0" style="stop-color:#2A7FFF"/>
			<stop  offset="1" style="stop-color:#001172"/>
		</linearGradient>
		<path style="fill:url(#SVGID_00000005948151644201106660000006215760981449614472_);" d="M289.64,178.744
			c-2.539,1.136-6.087,2.898-9.918,4.867c-2.977,65.17-43.287,186.178-146.1,201.726C249.378,374.548,289.83,245.841,289.64,178.744
			z"/>
		<path style="fill:#D5E5FF;" d="M133.622,385.337C249.378,374.548,289.83,245.841,289.64,178.744
			C285.073,247.932,249.321,372.546,133.622,385.337z"/>
	</g>
	<defs>
		<filter id="Adobe_OpacityMaskFilter" filterUnits="userSpaceOnUse" x="11.915" y="399.704" width="399.432" height="28.605">
			<feColorMatrix  type="matrix" values="1 0 0 0 0  0 1 0 0 0  0 0 1 0 0  0 0 0 1 0"/>
		</filter>
	</defs>
	
		<mask maskUnits="userSpaceOnUse" x="11.915" y="399.704" width="399.432" height="28.605" id="SVGID_00000135669501110470268550000001661953280877134005_">
		<g style="filter:url(#Adobe_OpacityMaskFilter);">
			<defs>
				
					<filter id="Adobe_OpacityMaskFilter_00000097460641305591009410000005937736673374184332_" filterUnits="userSpaceOnUse" x="11.915" y="399.704" width="399.432" height="28.605">
					<feFlood  style="flood-color:white;flood-opacity:1" result="back"/>
					<feBlend  in="SourceGraphic" in2="back" mode="normal"/>
				</filter>
			</defs>
			
				<mask maskUnits="userSpaceOnUse" x="11.915" y="399.704" width="399.432" height="28.605" id="SVGID_00000135669501110470268550000001661953280877134005_">
				<g style="filter:url(#Adobe_OpacityMaskFilter_00000097460641305591009410000005937736673374184332_);">
				</g>
			</mask>
			
				<radialGradient id="SVGID_00000072275324347335150990000000206752024852791215_" cx="115.4245" cy="666.2982" r="80.5309" gradientTransform="matrix(2.48 0 0 0.1776 -74.6216 295.6719)" gradientUnits="userSpaceOnUse">
				<stop  offset="0" style="stop-color:#212121"/>
				<stop  offset="0.0206" style="stop-color:#202020"/>
				<stop  offset="0.6236" style="stop-color:#090909"/>
				<stop  offset="1" style="stop-color:#000000"/>
			</radialGradient>
			
				<ellipse style="mask:url(#SVGID_00000135669501110470268550000001661953280877134005_);fill:url(#SVGID_00000072275324347335150990000000206752024852791215_);" cx="211.631" cy="414.006" rx="199.716" ry="14.302"/>
		</g>
	</mask>
	<ellipse style="fill:#000017;" cx="211.631" cy="414.006" rx="199.716" ry="14.302"/>
</g>
<g id="Layer_2">
	<g>
		<g>
			
				<linearGradient id="SVGID_00000036239176113307858960000008924239236296245671_" gradientUnits="userSpaceOnUse" x1="295.0374" y1="252.5554" x2="295.0374" y2="203.1983">
				<stop  offset="0" style="stop-color:#0BC1FF"/>
				<stop  offset="1" style="stop-color:#0DA0D6"/>
			</linearGradient>
			<polygon style="fill:url(#SVGID_00000036239176113307858960000008924239236296245671_);" points="325.614,203.198 
				354.972,229.744 354.972,238.039 255.427,252.555 235.103,252.141 235.103,243.846 			"/>
			<polygon style="fill:#035980;" points="235.103,251.641 235.103,252.141 255.427,252.555 354.972,238.039 354.972,237.539 
				255.427,252.055 			"/>
			
				<linearGradient id="SVGID_00000100342218996638120050000004382707061166474429_" gradientUnits="userSpaceOnUse" x1="235.1033" y1="227.6697" x2="325.614" y2="227.6697">
				<stop  offset="0" style="stop-color:#067CAB"/>
				<stop  offset="1" style="stop-color:#03648F"/>
			</linearGradient>
			<polygon style="fill:url(#SVGID_00000100342218996638120050000004382707061166474429_);" points="235.103,252.141 
				325.614,211.494 325.614,203.198 235.103,243.846 			"/>
			
				<linearGradient id="SVGID_00000038409624368138042720000012869098680870173082_" gradientUnits="userSpaceOnUse" x1="325.614" y1="220.6186" x2="354.9716" y2="220.6186">
				<stop  offset="0" style="stop-color:#31C8FF"/>
				<stop  offset="1" style="stop-color:#0BA0D5"/>
			</linearGradient>
			<polygon style="fill:url(#SVGID_00000038409624368138042720000012869098680870173082_);" points="325.614,211.494 
				354.972,238.039 354.972,229.744 325.614,203.198 			"/>
			<polygon style="fill:#035980;" points="235.103,251.339 235.103,252.141 325.614,211.494 354.972,238.039 354.972,237.237 
				325.614,210.692 			"/>
		</g>
		<g>
			
				<linearGradient id="SVGID_00000047777304109310171390000016408293433994819750_" gradientUnits="userSpaceOnUse" x1="221.1188" y1="265.7106" x2="316.101" y2="265.7106">
				<stop  offset="0" style="stop-color:#0BC1FF"/>
				<stop  offset="1" style="stop-color:#0DA0D6"/>
			</linearGradient>
			<polygon style="fill:url(#SVGID_00000047777304109310171390000016408293433994819750_);" points="259.368,232.115 
				316.101,251.609 316.101,259.904 241.442,299.307 221.119,298.892 221.119,290.597 			"/>
			<polygon style="fill:#035980;" points="221.119,298.392 221.119,298.892 241.442,299.307 316.101,259.904 316.101,259.404 
				241.442,298.807 			"/>
			
				<linearGradient id="SVGID_00000024711163607695606370000004063198619494066820_" gradientUnits="userSpaceOnUse" x1="221.1188" y1="265.5034" x2="259.3685" y2="265.5034">
				<stop  offset="0" style="stop-color:#067CAB"/>
				<stop  offset="1" style="stop-color:#03648F"/>
			</linearGradient>
			<polygon style="fill:url(#SVGID_00000024711163607695606370000004063198619494066820_);" points="221.119,298.892 
				259.368,240.41 259.368,232.115 221.119,290.597 			"/>
			
				<linearGradient id="SVGID_00000174566228374243977390000016240148034357473921_" gradientUnits="userSpaceOnUse" x1="259.3685" y1="246.0092" x2="316.101" y2="246.0092">
				<stop  offset="0" style="stop-color:#31C8FF"/>
				<stop  offset="1" style="stop-color:#0BA0D5"/>
			</linearGradient>
			<polygon style="fill:url(#SVGID_00000174566228374243977390000016240148034357473921_);" points="259.368,240.41 
				316.101,259.904 316.101,251.609 259.368,232.115 			"/>
			<polygon style="fill:#035980;" points="221.119,298.09 221.119,298.892 259.369,240.41 316.101,259.904 316.101,259.102 
				259.369,239.608 			"/>
		</g>
		<g>
			
				<linearGradient id="SVGID_00000080189723797917800350000014352750122228703159_" gradientUnits="userSpaceOnUse" x1="68.818" y1="398.8518" x2="218.135" y2="398.8518">
				<stop  offset="0" style="stop-color:#5FD1FF"/>
				<stop  offset="1" style="stop-color:#B1E2FF"/>
			</linearGradient>
			
				<rect x="68.818" y="394.704" style="fill:url(#SVGID_00000080189723797917800350000014352750122228703159_);" width="149.317" height="8.295"/>
			
				<linearGradient id="SVGID_00000057869344403507874150000018232888208195488129_" gradientUnits="userSpaceOnUse" x1="32.3183" y1="398.8518" x2="68.818" y2="398.8518">
				<stop  offset="0" style="stop-color:#037BAA"/>
				<stop  offset="1" style="stop-color:#067CAB"/>
			</linearGradient>
			
				<rect x="32.318" y="394.704" style="fill:url(#SVGID_00000057869344403507874150000018232888208195488129_);" width="36.5" height="8.295"/>
		</g>
		<g>
			
				<linearGradient id="SVGID_00000090268952161037208090000005097418156760013732_" gradientUnits="userSpaceOnUse" x1="73.5785" y1="366.9143" x2="227.458" y2="366.9143">
				<stop  offset="0" style="stop-color:#ADE1FF"/>
				<stop  offset="1" style="stop-color:#D8E9FF"/>
			</linearGradient>
			<polygon style="fill:url(#SVGID_00000090268952161037208090000005097418156760013732_);" points="124.543,353.227 
				73.578,359.449 73.578,367.744 206.935,380.602 227.458,380.187 227.458,371.892 			"/>
			
				<linearGradient id="SVGID_00000041979501270661780860000013354987885672089740_" gradientUnits="userSpaceOnUse" x1="124.5433" y1="366.7072" x2="227.458" y2="366.7072">
				<stop  offset="0" style="stop-color:#039DD4"/>
				<stop  offset="1" style="stop-color:#89D9FF"/>
			</linearGradient>
			<polygon style="fill:url(#SVGID_00000041979501270661780860000013354987885672089740_);" points="227.458,380.187 
				124.543,361.522 124.543,353.227 227.458,371.892 			"/>
			
				<linearGradient id="SVGID_00000168113001925426231780000008529059384116283051_" gradientUnits="userSpaceOnUse" x1="73.5785" y1="360.4857" x2="124.5433" y2="360.4857">
				<stop  offset="0" style="stop-color:#037BAA"/>
				<stop  offset="1" style="stop-color:#067CAB"/>
			</linearGradient>
			<polygon style="fill:url(#SVGID_00000168113001925426231780000008529059384116283051_);" points="124.543,361.522 
				73.578,367.744 73.578,359.449 124.543,353.227 			"/>
			<polygon style="fill:#83D8FF;" points="73.579,366.942 73.579,367.744 124.543,361.522 227.458,380.187 227.458,379.385 
				124.543,360.72 			"/>
		</g>
		<g>
			
				<linearGradient id="SVGID_00000016048347117142561520000008088416696922138244_" gradientUnits="userSpaceOnUse" x1="124.6942" y1="330.2072" x2="232.1195" y2="330.2072">
				<stop  offset="0" style="stop-color:#06C0FF"/>
				<stop  offset="1" style="stop-color:#88D9FF"/>
			</linearGradient>
			<polygon style="fill:url(#SVGID_00000016048347117142561520000008088416696922138244_);" points="187.233,308.847 
				124.694,315.068 124.694,323.364 211.796,351.568 232.119,351.153 232.119,342.858 			"/>
			
				<linearGradient id="SVGID_00000183210550326088346850000008759108341323310993_" gradientUnits="userSpaceOnUse" x1="187.2334" y1="330.0001" x2="232.1195" y2="330.0001">
				<stop  offset="0" style="stop-color:#087DAC"/>
				<stop  offset="1" style="stop-color:#2DC7FF"/>
			</linearGradient>
			<polygon style="fill:url(#SVGID_00000183210550326088346850000008759108341323310993_);" points="232.119,351.153 
				187.233,317.142 187.233,308.847 232.119,342.858 			"/>
			
				<linearGradient id="SVGID_00000110464178579444871950000007575289120915993475_" gradientUnits="userSpaceOnUse" x1="124.6942" y1="316.1053" x2="187.2334" y2="316.1053">
				<stop  offset="0" style="stop-color:#037BAA"/>
				<stop  offset="1" style="stop-color:#067CAB"/>
			</linearGradient>
			<polygon style="fill:url(#SVGID_00000110464178579444871950000007575289120915993475_);" points="187.233,317.142 
				124.694,323.364 124.694,315.068 187.233,308.847 			"/>
			<polygon style="fill:#035980;" points="124.694,322.562 124.694,323.364 187.233,317.142 232.119,351.153 232.119,350.351 
				187.233,316.34 			"/>
		</g>
		<g>
			
				<linearGradient id="SVGID_00000160912426903556472970000018132391225203673779_" gradientUnits="userSpaceOnUse" x1="185.7643" y1="295.9887" x2="264.4796" y2="295.9887">
				<stop  offset="0" style="stop-color:#0BC1FF"/>
				<stop  offset="1" style="stop-color:#0DA0D6"/>
			</linearGradient>
			<polygon style="fill:url(#SVGID_00000160912426903556472970000018132391225203673779_);" points="264.48,277.739 
				185.764,269.444 185.764,277.739 216.457,322.534 236.781,322.12 			"/>
			<polygon style="fill:#035980;" points="185.764,269.444 185.764,269.496 263.98,277.739 236.281,322.119 216.45,322.524 
				216.457,322.534 236.781,322.119 264.48,277.739 			"/>
			
				<linearGradient id="SVGID_00000130641267555708276900000003616756380796613807_" gradientUnits="userSpaceOnUse" x1="185.7643" y1="273.5914" x2="264.4796" y2="273.5914">
				<stop  offset="0" style="stop-color:#217BA3"/>
				<stop  offset="1" style="stop-color:#299BC9"/>
			</linearGradient>
			
				<rect x="185.764" y="269.444" style="fill:url(#SVGID_00000130641267555708276900000003616756380796613807_);" width="78.715" height="8.295"/>
			<rect x="185.764" y="276.937" style="fill:#035980;" width="78.715" height="0.802"/>
		</g>
	</g>
</g>
</svg>
